<svg width="488" height="480" viewBox="0 0 488 480" fill="none" xmlns="http://www.w3.org/2000/svg">
<rect width="488" height="480" rx="8" fill="#FF4F00"/>
<path d="M58.576 281.48C52.048 281.48 46.896 276.232 46.896 269.48C46.896 262.76 52.048 257.544 58.576 257.544C64.88 257.544 69.744 261.736 70.48 267.816H64.08C63.6 264.936 61.456 262.952 58.64 262.952C55.248 262.952 53.104 265.576 53.104 269.48C53.104 273.416 55.248 276.072 58.64 276.072C61.424 276.072 63.568 274.088 64.08 271.176H70.48C69.712 277.32 64.88 281.48 58.576 281.48ZM78.639 271.944V281H73.167V258.024H78.639V265.64C79.887 264.296 81.135 263.464 83.311 263.464C86.703 263.464 89.103 265.736 89.103 269.928V281H83.631V271.752C83.631 269.576 82.863 268.392 81.199 268.392C79.855 268.392 78.639 269.352 78.639 271.944ZM100.446 281.32C95.358 281.32 91.454 277.32 91.454 272.392C91.454 267.464 95.358 263.464 100.446 263.464C105.534 263.464 109.438 267.464 109.438 272.392C109.438 277.32 105.534 281.32 100.446 281.32ZM100.446 276.424C102.142 276.424 103.742 275.08 103.742 272.392C103.742 269.704 102.142 268.392 100.446 268.392C98.75 268.392 97.15 269.704 97.15 272.392C97.15 275.08 98.75 276.424 100.446 276.424ZM119.852 281.32C114.764 281.32 110.86 277.32 110.86 272.392C110.86 267.464 114.764 263.464 119.852 263.464C124.94 263.464 128.844 267.464 128.844 272.392C128.844 277.32 124.94 281.32 119.852 281.32ZM119.852 276.424C121.548 276.424 123.148 275.08 123.148 272.392C123.148 269.704 121.548 268.392 119.852 268.392C118.156 268.392 116.556 269.704 116.556 272.392C116.556 275.08 118.156 276.424 119.852 276.424ZM146.619 275.144C146.619 278.952 143.803 281.32 138.619 281.32C133.435 281.32 130.618 278.888 130.267 274.92H135.515C135.515 276.36 136.827 277.288 138.715 277.288C139.963 277.288 141.083 277 141.083 276.104C141.083 275.336 140.507 275.016 139.323 274.792L135.931 274.184C132.923 273.64 131.003 271.912 131.003 269.128C131.003 265.8 133.819 263.464 138.331 263.464C142.843 263.464 145.979 265.864 146.299 269.704H141.051C140.923 268.328 139.867 267.496 138.363 267.496C137.083 267.496 136.251 267.848 136.251 268.616C136.251 269.352 136.795 269.576 137.883 269.768L141.531 270.44C144.859 271.048 146.619 272.68 146.619 275.144ZM157.037 281.288C151.725 281.288 148.173 277.704 148.173 272.36C148.173 267.208 151.885 263.464 157.005 263.464C162.701 263.464 166.509 268.104 165.517 273.768H153.837C154.125 275.944 155.149 277.032 156.909 277.032C158.445 277.032 159.469 276.392 159.949 275.144H165.421C164.365 279.08 161.325 281.288 157.037 281.288ZM156.877 267.496C155.245 267.496 154.285 268.424 153.901 270.344H159.661C159.597 268.616 158.509 267.496 156.877 267.496ZM188.839 281L186.183 271.24L183.527 281H178.055L173.223 263.784H178.567L180.967 273.224L183.495 263.784H188.967L191.367 273.224L193.767 263.784H199.143L194.279 281H188.839ZM206.577 271.944V281H201.105V258.024H206.577V265.64C207.825 264.296 209.073 263.464 211.249 263.464C214.641 263.464 217.041 265.736 217.041 269.928V281H211.569V271.752C211.569 269.576 210.801 268.392 209.137 268.392C207.793 268.392 206.577 269.352 206.577 271.944ZM228.256 281.288C222.944 281.288 219.392 277.704 219.392 272.36C219.392 267.208 223.104 263.464 228.224 263.464C233.92 263.464 237.728 268.104 236.736 273.768H225.056C225.344 275.944 226.368 277.032 228.128 277.032C229.664 277.032 230.688 276.392 231.168 275.144H236.64C235.583 279.08 232.544 281.288 228.256 281.288ZM228.095 267.496C226.464 267.496 225.504 268.424 225.12 270.344H230.88C230.816 268.616 229.728 267.496 228.095 267.496ZM244.858 271.944V281H239.386V263.784H244.41V265.864C245.754 264.36 247.354 263.464 249.53 263.464C252.922 263.464 255.322 265.736 255.322 269.928V281H249.85V271.752C249.85 269.576 249.082 268.392 247.418 268.392C246.074 268.392 244.858 269.352 244.858 271.944ZM281.992 263.784L273.8 287.176H267.816L270.216 280.808L263.496 263.784H269.448L273.16 274.44L276.488 263.784H281.992ZM290.915 281.32C285.827 281.32 281.923 277.32 281.923 272.392C281.923 267.464 285.827 263.464 290.915 263.464C296.003 263.464 299.907 267.464 299.907 272.392C299.907 277.32 296.003 281.32 290.915 281.32ZM290.915 276.424C292.611 276.424 294.211 275.08 294.211 272.392C294.211 269.704 292.611 268.392 290.915 268.392C289.219 268.392 287.619 269.704 287.619 272.392C287.619 275.08 289.219 276.424 290.915 276.424ZM312.625 273.608V263.784H318.097V281H313.073V279.144C312.113 280.424 310.289 281.32 308.273 281.32C304.849 281.32 302.257 279.176 302.257 274.632V263.784H307.729V273.608C307.729 275.496 308.657 276.424 310.193 276.424C311.281 276.424 312.625 275.56 312.625 273.608ZM326.115 267.72H321.827L321.507 258.024H326.435L326.115 267.72ZM335.327 273.064V281H329.855V263.784H334.879V266.824C336.191 264.808 338.911 263.656 341.663 263.656V269.352C337.791 268.968 335.327 269.256 335.327 273.064ZM351.381 281.288C346.069 281.288 342.517 277.704 342.517 272.36C342.517 267.208 346.229 263.464 351.349 263.464C357.045 263.464 360.853 268.104 359.861 273.768H348.181C348.469 275.944 349.493 277.032 351.253 277.032C352.789 277.032 353.813 276.392 354.293 275.144H359.765C358.708 279.08 355.669 281.288 351.381 281.288ZM351.22 267.496C349.589 267.496 348.629 268.424 348.245 270.344H354.005C353.941 268.616 352.853 267.496 351.22 267.496ZM57.872 317V315.336C56.656 316.712 55.152 317.32 52.944 317.32C49.36 317.32 46.96 315.176 46.96 311.912C46.96 308.552 49.68 306.728 54.608 306.728C55.536 306.728 56.4 306.792 57.136 306.92V306.088C57.136 304.584 56.272 303.752 54.736 303.752C53.232 303.752 52.336 304.584 52.144 306.088H47.216C47.536 302.088 50.512 299.464 54.768 299.464C59.504 299.464 62.288 302.024 62.288 306.376V317H57.872ZM52.112 311.752C52.112 312.872 52.88 313.544 54.224 313.544C56.048 313.544 57.136 312.68 57.136 311.272V310.184C56.304 310.024 55.664 309.96 54.96 309.96C53.104 309.96 52.112 310.568 52.112 311.752ZM81.6173 299.784L75.4413 317H69.3613L63.1212 299.784H69.0733L72.5293 310.792L76.0493 299.784H81.6173ZM92.872 317V315.336C91.656 316.712 90.152 317.32 87.944 317.32C84.36 317.32 81.96 315.176 81.96 311.912C81.96 308.552 84.68 306.728 89.608 306.728C90.536 306.728 91.4 306.792 92.136 306.92V306.088C92.136 304.584 91.272 303.752 89.736 303.752C88.232 303.752 87.336 304.584 87.144 306.088H82.216C82.536 302.088 85.512 299.464 89.768 299.464C94.504 299.464 97.288 302.024 97.288 306.376V317H92.872ZM87.112 311.752C87.112 312.872 87.88 313.544 89.224 313.544C91.048 313.544 92.136 312.68 92.136 311.272V310.184C91.304 310.024 90.664 309.96 89.96 309.96C88.104 309.96 87.112 310.568 87.112 311.752ZM106.906 295.784C106.906 297.576 105.466 298.888 103.386 298.888C101.306 298.888 99.8663 297.576 99.8663 295.784C99.8663 293.96 101.306 292.648 103.386 292.648C105.466 292.648 106.906 293.96 106.906 295.784ZM106.17 317H100.698V299.784H106.17V317ZM115.297 317H109.761V294.024H115.297V317ZM128.966 317V315.336C127.75 316.712 126.246 317.32 124.038 317.32C120.454 317.32 118.054 315.176 118.054 311.912C118.054 308.552 120.774 306.728 125.702 306.728C126.63 306.728 127.494 306.792 128.23 306.92V306.088C128.23 304.584 127.366 303.752 125.83 303.752C124.326 303.752 123.43 304.584 123.238 306.088H118.31C118.63 302.088 121.606 299.464 125.862 299.464C130.598 299.464 133.382 302.024 133.382 306.376V317H128.966ZM123.206 311.752C123.206 312.872 123.974 313.544 125.318 313.544C127.142 313.544 128.23 312.68 128.23 311.272V310.184C127.398 310.024 126.758 309.96 126.054 309.96C124.198 309.96 123.206 310.568 123.206 311.752ZM154.616 308.392C154.616 313.32 151.576 317.32 146.936 317.32C144.92 317.32 143.224 316.52 141.816 315.048V317H136.792V294.024H142.264V301.384C143.608 300.104 145.144 299.464 146.936 299.464C151.576 299.464 154.616 303.4 154.616 308.392ZM148.92 308.392C148.92 305.64 147.288 304.392 145.624 304.392C143.96 304.392 142.328 305.608 142.328 308.36C142.328 311.08 143.928 312.392 145.624 312.392C147.288 312.392 148.92 311.08 148.92 308.392ZM162.641 317H157.105V294.024H162.641V317ZM174.006 317.288C168.694 317.288 165.142 313.704 165.142 308.36C165.142 303.208 168.854 299.464 173.974 299.464C179.67 299.464 183.478 304.104 182.486 309.768H170.806C171.094 311.944 172.118 313.032 173.878 313.032C175.414 313.032 176.438 312.392 176.918 311.144H182.39C181.333 315.08 178.294 317.288 174.006 317.288ZM173.845 303.496C172.214 303.496 171.254 304.424 170.87 306.344H176.63C176.566 304.616 175.478 303.496 173.845 303.496ZM203.375 311.624V316.392C202.159 317.064 201.007 317.32 199.471 317.32C195.599 317.32 193.327 315.016 193.327 311.08V304.552H190.127V299.784H193.327V294.728H198.799V299.784H203.503V304.552H198.799V309.8C198.799 311.464 199.503 312.232 201.007 312.232C201.903 312.232 202.767 312.008 203.375 311.624ZM213.54 317.32C208.452 317.32 204.548 313.32 204.548 308.392C204.548 303.464 208.452 299.464 213.54 299.464C218.628 299.464 222.532 303.464 222.532 308.392C222.532 313.32 218.628 317.32 213.54 317.32ZM213.54 312.424C215.236 312.424 216.836 311.08 216.836 308.392C216.836 305.704 215.236 304.392 213.54 304.392C211.844 304.392 210.244 305.704 210.244 308.392C210.244 311.08 211.844 312.424 213.54 312.424ZM243.282 311.624V316.392C242.066 317.064 240.914 317.32 239.378 317.32C235.506 317.32 233.234 315.016 233.234 311.08V304.552H230.034V299.784H233.234V294.728H238.706V299.784H243.41V304.552H238.706V309.8C238.706 311.464 239.41 312.232 240.914 312.232C241.81 312.232 242.674 312.008 243.282 311.624ZM255.935 317V315.336C254.719 316.712 253.215 317.32 251.007 317.32C247.423 317.32 245.023 315.176 245.023 311.912C245.023 308.552 247.743 306.728 252.671 306.728C253.599 306.728 254.463 306.792 255.199 306.92V306.088C255.199 304.584 254.335 303.752 252.799 303.752C251.295 303.752 250.399 304.584 250.207 306.088H245.279C245.599 302.088 248.575 299.464 252.831 299.464C257.567 299.464 260.351 302.024 260.351 306.376V317H255.935ZM250.175 311.752C250.175 312.872 250.943 313.544 252.286 313.544C254.111 313.544 255.199 312.68 255.199 311.272V310.184C254.367 310.024 253.727 309.96 253.023 309.96C251.167 309.96 250.175 310.568 250.175 311.752ZM269.233 317H263.761V294.024H269.233V306.76L274.577 299.784H280.881L274.513 307.944L281.777 317H274.801L269.233 309.16V317ZM290.131 317.288C284.819 317.288 281.267 313.704 281.267 308.36C281.267 303.208 284.979 299.464 290.099 299.464C295.795 299.464 299.603 304.104 298.611 309.768H286.931C287.219 311.944 288.243 313.032 290.003 313.032C291.539 313.032 292.563 312.392 293.043 311.144H298.515C297.458 315.08 294.419 317.288 290.131 317.288ZM289.97 303.496C288.339 303.496 287.379 304.424 286.995 306.344H292.755C292.691 304.616 291.603 303.496 289.97 303.496ZM324.492 299.784L316.3 323.176H310.316L312.716 316.808L305.996 299.784H311.948L315.66 310.44L318.988 299.784H324.492ZM333.415 317.32C328.327 317.32 324.423 313.32 324.423 308.392C324.423 303.464 328.327 299.464 333.415 299.464C338.503 299.464 342.407 303.464 342.407 308.392C342.407 313.32 338.503 317.32 333.415 317.32ZM333.415 312.424C335.111 312.424 336.711 311.08 336.711 308.392C336.711 305.704 335.111 304.392 333.415 304.392C331.719 304.392 330.119 305.704 330.119 308.392C330.119 311.08 331.719 312.424 333.415 312.424ZM355.125 309.608V299.784H360.597V317H355.573V315.144C354.613 316.424 352.789 317.32 350.773 317.32C347.349 317.32 344.757 315.176 344.757 310.632V299.784H350.229V309.608C350.229 311.496 351.157 312.424 352.693 312.424C353.781 312.424 355.125 311.56 355.125 309.608ZM369.639 309.064V317H364.167V299.784H369.191V302.824C370.503 300.808 373.223 299.656 375.975 299.656V305.352C372.103 304.968 369.639 305.256 369.639 309.064ZM55.696 353.32C50.608 353.32 46.704 349.32 46.704 344.392C46.704 339.464 50.608 335.464 55.696 335.464C60.784 335.464 64.688 339.464 64.688 344.392C64.688 349.32 60.784 353.32 55.696 353.32ZM55.696 348.424C57.392 348.424 58.992 347.08 58.992 344.392C58.992 341.704 57.392 340.392 55.696 340.392C54 340.392 52.4 341.704 52.4 344.392C52.4 347.08 54 348.424 55.696 348.424ZM72.6703 345.064V353H67.1983V335.784H72.2223V338.824C73.5343 336.808 76.2543 335.656 79.0063 335.656V341.352C75.1343 340.968 72.6703 341.256 72.6703 345.064ZM79.8603 344.392C79.8603 339.4 82.9003 335.464 87.5403 335.464C89.3323 335.464 90.8683 336.104 92.2123 337.384V330.024H97.6843V353H92.6603V351.048C91.2523 352.52 89.5563 353.32 87.5403 353.32C82.9003 353.32 79.8603 349.32 79.8603 344.392ZM85.5563 344.392C85.5563 347.08 87.1883 348.392 88.8523 348.392C90.5483 348.392 92.1483 347.08 92.1483 344.36C92.1483 341.608 90.5163 340.392 88.8523 340.392C87.1883 340.392 85.5563 341.64 85.5563 344.392ZM109.037 353.288C103.725 353.288 100.173 349.704 100.173 344.36C100.173 339.208 103.885 335.464 109.005 335.464C114.701 335.464 118.509 340.104 117.517 345.768H105.837C106.125 347.944 107.149 349.032 108.909 349.032C110.445 349.032 111.469 348.392 111.949 347.144H117.421C116.365 351.08 113.325 353.288 109.037 353.288ZM108.877 339.496C107.245 339.496 106.285 340.424 105.901 342.344H111.661C111.597 340.616 110.509 339.496 108.877 339.496ZM125.639 345.064V353H120.167V335.784H125.191V338.824C126.503 336.808 129.223 335.656 131.975 335.656V341.352C128.103 340.968 125.639 341.256 125.639 345.064ZM149.337 347.144C149.337 350.952 146.521 353.32 141.337 353.32C136.153 353.32 133.337 350.888 132.985 346.92H138.233C138.233 348.36 139.545 349.288 141.433 349.288C142.681 349.288 143.801 349 143.801 348.104C143.801 347.336 143.225 347.016 142.041 346.792L138.649 346.184C135.641 345.64 133.721 343.912 133.721 341.128C133.721 337.8 136.537 335.464 141.049 335.464C145.561 335.464 148.697 337.864 149.017 341.704H143.769C143.641 340.328 142.585 339.496 141.081 339.496C139.801 339.496 138.969 339.848 138.969 340.616C138.969 341.352 139.513 341.576 140.601 341.768L144.249 342.44C147.577 343.048 149.337 344.68 149.337 347.144ZM157.9 349.672C157.9 351.72 156.492 353.16 154.444 353.16C152.396 353.16 150.956 351.72 150.956 349.672C150.956 347.592 152.396 346.152 154.444 346.152C156.492 346.152 157.9 347.592 157.9 349.672Z" fill="white"/>
<path d="M52.416 392.24C49.088 392.24 46.576 389.632 46.576 386.24C46.576 382.848 49.088 380.272 52.416 380.272C55.744 380.272 58.256 382.848 58.256 386.24C58.256 389.632 55.744 392.24 52.416 392.24ZM52.416 390.656C54.848 390.656 56.432 388.704 56.432 386.24C56.432 383.776 54.848 381.856 52.416 381.856C49.984 381.856 48.4 383.776 48.4 386.24C48.4 388.704 49.984 390.656 52.416 390.656ZM62.3321 392H60.7161V384.896H58.8441V383.52H60.7161V382.896C60.7161 381.264 61.5961 380.368 63.1961 380.368C63.6761 380.368 64.0601 380.448 64.3801 380.576V381.888C64.1241 381.776 63.8361 381.744 63.5481 381.744C62.7801 381.744 62.3321 382.096 62.3321 382.912V383.52H64.7001V384.896H62.3321V392ZM68.7853 392H67.1693V384.896H65.2973V383.52H67.1693V382.896C67.1693 381.264 68.0493 380.368 69.6493 380.368C70.1293 380.368 70.5133 380.448 70.8333 380.576V381.888C70.5773 381.776 70.2893 381.744 70.0013 381.744C69.2333 381.744 68.7853 382.096 68.7853 382.912V383.52H71.1533V384.896H68.7853V392ZM75.6393 392.16C73.1913 392.16 71.5433 390.384 71.5433 387.712C71.5433 385.2 73.2553 383.36 75.5913 383.36C78.1193 383.36 79.7993 385.408 79.5113 388.16H73.1913C73.3193 389.888 74.1833 390.896 75.6073 390.896C76.8073 390.896 77.6393 390.24 77.9113 389.136H79.5113C79.0953 391.024 77.6393 392.16 75.6393 392.16ZM75.5593 384.576C74.2633 384.576 73.3832 385.504 73.2073 387.088H77.7993C77.7193 385.52 76.8713 384.576 75.5593 384.576ZM82.8454 387.664V392H81.2294V383.52H82.7334V385.312C83.3254 384.144 84.6054 383.408 85.9974 383.408V385.088C84.1734 384.992 82.8454 385.792 82.8454 387.664ZM90.012 387.76C90.012 385.184 91.484 383.36 93.772 383.36C94.908 383.36 95.9 383.936 96.492 384.976V380.512H98.108V392H96.604V390.48C95.996 391.552 94.972 392.16 93.772 392.16C91.484 392.16 90.012 390.304 90.012 387.76ZM91.692 387.76C91.692 389.648 92.684 390.72 94.092 390.72C95.468 390.72 96.492 389.6 96.492 387.728C96.492 385.824 95.436 384.784 94.092 384.784C92.684 384.784 91.692 385.84 91.692 387.76ZM103.842 392.16C101.394 392.16 99.7464 390.384 99.7464 387.712C99.7464 385.2 101.458 383.36 103.794 383.36C106.322 383.36 108.002 385.408 107.714 388.16H101.394C101.522 389.888 102.386 390.896 103.81 390.896C105.01 390.896 105.842 390.24 106.114 389.136H107.714C107.298 391.024 105.842 392.16 103.842 392.16ZM103.762 384.576C102.466 384.576 101.586 385.504 101.41 387.088H106.002C105.922 385.52 105.074 384.576 103.762 384.576ZM111.065 392H109.433V380.512H111.065V392ZM115.276 381.552C115.276 382.16 114.796 382.624 114.108 382.624C113.42 382.624 112.924 382.16 112.924 381.552C112.924 380.928 113.42 380.48 114.108 380.48C114.796 380.48 115.276 380.928 115.276 381.552ZM114.924 392H113.308V383.52H114.924V392ZM124.207 383.52L121.023 392H119.263L116.079 383.52H117.823L120.175 390.144L122.559 383.52H124.207ZM128.577 392.16C126.129 392.16 124.481 390.384 124.481 387.712C124.481 385.2 126.193 383.36 128.529 383.36C131.057 383.36 132.737 385.408 132.449 388.16H126.129C126.257 389.888 127.121 390.896 128.545 390.896C129.745 390.896 130.577 390.24 130.849 389.136H132.449C132.033 391.024 130.577 392.16 128.577 392.16ZM128.497 384.576C127.201 384.576 126.321 385.504 126.145 387.088H130.737C130.657 385.52 129.809 384.576 128.497 384.576ZM135.783 387.664V392H134.167V383.52H135.671V385.312C136.263 384.144 137.543 383.408 138.935 383.408V385.088C137.111 384.992 135.783 385.792 135.783 387.664ZM147.41 383.52L143.17 395.088H141.41L142.626 391.888L139.282 383.52H141.026L143.49 389.984L145.778 383.52H147.41ZM149.703 391.312C149.703 392.832 148.503 394.016 146.743 394.048V393.136C147.783 393.104 148.487 392.544 148.583 391.76C148.439 391.808 148.343 391.824 148.231 391.824C147.623 391.824 147.175 391.328 147.175 390.736C147.175 390.048 147.687 389.6 148.343 389.6C149.223 389.6 149.703 390.24 149.703 391.312ZM163.107 387.76C163.107 390.32 161.635 392.16 159.363 392.16C158.211 392.16 157.235 391.584 156.627 390.56V395.088H155.011V383.52H156.515V385.072C157.123 383.984 158.163 383.36 159.363 383.36C161.619 383.36 163.107 385.2 163.107 387.76ZM161.427 387.76C161.427 385.856 160.419 384.784 159.027 384.784C157.683 384.784 156.627 385.856 156.627 387.76C156.627 389.632 157.667 390.72 159.027 390.72C160.419 390.72 161.427 389.664 161.427 387.76ZM166.713 381.552C166.713 382.16 166.233 382.624 165.545 382.624C164.857 382.624 164.361 382.16 164.361 381.552C164.361 380.928 164.857 380.48 165.545 380.48C166.233 380.48 166.713 380.928 166.713 381.552ZM166.361 392H164.745V383.52H166.361V392ZM171.948 392.176C169.628 392.176 167.996 390.352 167.996 387.76C167.996 385.2 169.66 383.36 171.948 383.36C174.044 383.36 175.564 384.752 175.868 386.96H174.172C173.996 385.6 173.148 384.784 171.964 384.784C170.572 384.784 169.66 385.968 169.66 387.76C169.66 389.568 170.572 390.736 171.964 390.736C173.164 390.736 173.996 389.936 174.188 388.56H175.868C175.58 390.8 174.076 392.176 171.948 392.176ZM179.111 392H177.495V380.512H179.111V387.312L182.743 383.52H184.647L180.727 387.632L185.015 392H182.935L179.111 387.984V392ZM191.447 388.512V383.52H193.063V392H191.559V390.656C191.111 391.536 190.119 392.16 188.967 392.16C187.255 392.16 186.071 391.152 186.071 388.976V383.52H187.687V388.656C187.687 390.128 188.423 390.736 189.479 390.736C190.567 390.736 191.447 389.84 191.447 388.512ZM203.404 387.76C203.404 390.32 201.932 392.16 199.66 392.16C198.508 392.16 197.532 391.584 196.924 390.56V395.088H195.308V383.52H196.812V385.072C197.42 383.984 198.46 383.36 199.66 383.36C201.916 383.36 203.404 385.2 203.404 387.76ZM201.724 387.76C201.724 385.856 200.716 384.784 199.324 384.784C197.98 384.784 196.924 385.856 196.924 387.76C196.924 389.632 197.964 390.72 199.324 390.72C200.716 390.72 201.724 389.664 201.724 387.76ZM207 391.312C207 392.832 205.799 394.016 204.04 394.048V393.136C205.08 393.104 205.784 392.544 205.88 391.76C205.736 391.808 205.64 391.824 205.528 391.824C204.92 391.824 204.472 391.328 204.472 390.736C204.472 390.048 204.984 389.6 205.64 389.6C206.52 389.6 207 390.24 207 391.312ZM215.86 392.16C213.46 392.16 211.7 390.272 211.7 387.76C211.7 385.248 213.46 383.36 215.86 383.36C218.26 383.36 220.02 385.248 220.02 387.76C220.02 390.272 218.26 392.16 215.86 392.16ZM215.86 390.736C217.252 390.736 218.356 389.616 218.356 387.76C218.356 385.904 217.252 384.8 215.86 384.8C214.468 384.8 213.38 385.904 213.38 387.76C213.38 389.616 214.468 390.736 215.86 390.736ZM223.283 387.664V392H221.667V383.52H223.171V385.312C223.763 384.144 225.043 383.408 226.435 383.408V385.088C224.611 384.992 223.283 385.792 223.283 387.664ZM239.154 387.76C239.154 390.304 237.682 392.16 235.394 392.16C234.194 392.16 233.17 391.552 232.562 390.48V392H231.058V380.512H232.674V384.976C233.266 383.936 234.242 383.36 235.394 383.36C237.666 383.36 239.154 385.184 239.154 387.76ZM237.474 387.76C237.474 385.84 236.466 384.784 235.074 384.784C233.73 384.784 232.674 385.824 232.674 387.728C232.674 389.6 233.698 390.72 235.074 390.72C236.466 390.72 237.474 389.648 237.474 387.76ZM244.344 392.16C241.944 392.16 240.184 390.272 240.184 387.76C240.184 385.248 241.944 383.36 244.344 383.36C246.744 383.36 248.504 385.248 248.504 387.76C248.504 390.272 246.744 392.16 244.344 392.16ZM244.344 390.736C245.736 390.736 246.84 389.616 246.84 387.76C246.84 385.904 245.736 384.8 244.344 384.8C242.952 384.8 241.864 385.904 241.864 387.76C241.864 389.616 242.952 390.736 244.344 390.736ZM254.779 390.432V391.856C254.283 392.08 253.851 392.16 253.339 392.16C251.771 392.16 250.683 391.312 250.683 389.44V384.896H248.811V383.52H250.683V381.008H252.299V383.52H254.859V384.896H252.299V389.072C252.299 390.24 252.859 390.656 253.723 390.656C254.107 390.656 254.443 390.592 254.779 390.432ZM258.017 387.216V392H256.401V380.512H258.017V384.88C258.577 383.968 259.441 383.36 260.609 383.36C262.353 383.36 263.505 384.48 263.505 386.512V392H261.889V387.056C261.889 385.6 261.249 384.784 260.049 384.784C258.945 384.784 258.017 385.712 258.017 387.216ZM279.555 388.288H268.195V386.88H279.555V388.288ZM289.475 392V390.688C288.947 391.632 288.003 392.16 286.755 392.16C284.995 392.16 283.843 391.152 283.843 389.6C283.843 387.936 285.171 387.072 287.699 387.072C288.195 387.072 288.595 387.088 289.283 387.168V386.544C289.283 385.328 288.627 384.64 287.507 384.64C286.323 384.64 285.603 385.344 285.555 386.528H284.083C284.163 384.624 285.523 383.36 287.507 383.36C289.603 383.36 290.819 384.544 290.819 386.56V392H289.475ZM285.379 389.552C285.379 390.432 286.035 391.008 287.075 391.008C288.435 391.008 289.283 390.16 289.283 388.864V388.176C288.659 388.096 288.211 388.08 287.795 388.08C286.179 388.08 285.379 388.56 285.379 389.552ZM294.611 392H292.979V380.512H294.611V392ZM298.486 392H296.854V380.512H298.486V392ZM307.625 392.16C305.225 392.16 303.465 390.272 303.465 387.76C303.465 385.248 305.225 383.36 307.625 383.36C310.025 383.36 311.785 385.248 311.785 387.76C311.785 390.272 310.025 392.16 307.625 392.16ZM307.625 390.736C309.017 390.736 310.121 389.616 310.121 387.76C310.121 385.904 309.017 384.8 307.625 384.8C306.233 384.8 305.145 385.904 305.145 387.76C305.145 389.616 306.233 390.736 307.625 390.736ZM315.049 387.216V392H313.433V383.52H314.937V384.928C315.513 383.984 316.473 383.36 317.641 383.36C319.385 383.36 320.536 384.48 320.536 386.512V392H318.921V387.056C318.921 385.6 318.281 384.784 317.081 384.784C315.977 384.784 315.049 385.712 315.049 387.216ZM333.066 383.52L328.826 395.088H327.066L328.282 391.888L324.938 383.52H326.682L329.146 389.984L331.434 383.52H333.066ZM337.5 392.16C335.1 392.16 333.34 390.272 333.34 387.76C333.34 385.248 335.1 383.36 337.5 383.36C339.9 383.36 341.66 385.248 341.66 387.76C341.66 390.272 339.9 392.16 337.5 392.16ZM337.5 390.736C338.892 390.736 339.996 389.616 339.996 387.76C339.996 385.904 338.892 384.8 337.5 384.8C336.108 384.8 335.02 385.904 335.02 387.76C335.02 389.616 336.108 390.736 337.5 390.736ZM348.604 388.512V383.52H350.22V392H348.716V390.656C348.268 391.536 347.276 392.16 346.124 392.16C344.412 392.16 343.228 391.152 343.228 388.976V383.52H344.844V388.656C344.844 390.128 345.58 390.736 346.636 390.736C347.724 390.736 348.604 389.84 348.604 388.512ZM354.08 387.664V392H352.464V383.52H353.968V385.312C354.56 384.144 355.84 383.408 357.232 383.408V385.088C355.408 384.992 354.08 385.792 354.08 387.664ZM366.638 390.432V391.856C366.142 392.08 365.71 392.16 365.198 392.16C363.63 392.16 362.542 391.312 362.542 389.44V384.896H360.67V383.52H362.542V381.008H364.158V383.52H366.718V384.896H364.158V389.072C364.158 390.24 364.718 390.656 365.582 390.656C365.966 390.656 366.302 390.592 366.638 390.432ZM371.514 392.16C369.066 392.16 367.418 390.384 367.418 387.712C367.418 385.2 369.13 383.36 371.466 383.36C373.994 383.36 375.674 385.408 375.386 388.16H369.066C369.194 389.888 370.058 390.896 371.482 390.896C372.682 390.896 373.514 390.24 373.786 389.136H375.386C374.97 391.024 373.514 392.16 371.514 392.16ZM371.434 384.576C370.138 384.576 369.258 385.504 369.082 387.088H373.674C373.594 385.52 372.746 384.576 371.434 384.576ZM378.72 387.664V392H377.104V383.52H378.608V385.312C379.2 384.144 380.48 383.408 381.872 383.408V385.088C380.048 384.992 378.72 385.792 378.72 387.664ZM384.767 392H383.151V383.52H384.655V384.928C385.231 383.952 386.143 383.36 387.311 383.36C388.559 383.36 389.503 384 389.887 385.12C390.479 384.032 391.455 383.36 392.751 383.36C394.495 383.36 395.615 384.496 395.615 386.512V392H393.999V387.024C393.999 385.616 393.375 384.784 392.191 384.784C391.087 384.784 390.191 385.712 390.191 387.136V392H388.575V387.024C388.575 385.616 387.951 384.784 386.767 384.784C385.647 384.784 384.767 385.712 384.767 387.136V392ZM404.496 389.472C404.496 391.136 403.2 392.16 400.944 392.16C398.704 392.16 397.376 391.056 397.216 389.232H398.768C398.832 390.288 399.68 390.944 400.976 390.944C402.112 390.944 402.864 390.544 402.864 389.744C402.864 389.04 402.432 388.736 401.376 388.528L400 388.272C398.432 387.968 397.552 387.168 397.552 385.888C397.552 384.4 398.848 383.36 400.816 383.36C402.848 383.36 404.224 384.448 404.368 386.192H402.816C402.72 385.168 401.968 384.576 400.832 384.576C399.808 384.576 399.12 385.008 399.12 385.744C399.12 386.432 399.552 386.752 400.576 386.944L402.016 387.216C403.696 387.52 404.496 388.256 404.496 389.472ZM408.453 390.848C408.453 391.568 407.957 392.08 407.221 392.08C406.501 392.08 405.989 391.568 405.989 390.848C405.989 390.096 406.501 389.584 407.221 389.584C407.957 389.584 408.453 390.096 408.453 390.848ZM52.448 414.24C49.136 414.24 46.576 411.728 46.576 408.24C46.576 404.848 49.008 402.272 52.352 402.272C55.312 402.272 57.312 404.08 58.016 406.464H55.968C55.536 404.992 54.272 403.856 52.304 403.856C50.032 403.856 48.4 405.568 48.4 408.272C48.4 410.816 49.952 412.736 52.512 412.736C54.64 412.736 55.984 411.424 56.304 409.456H52.336V408.048H58.16C58.224 411.728 55.968 414.24 52.448 414.24ZM63.422 414.16C61.022 414.16 59.262 412.272 59.262 409.76C59.262 407.248 61.022 405.36 63.422 405.36C65.822 405.36 67.582 407.248 67.582 409.76C67.582 412.272 65.822 414.16 63.422 414.16ZM63.422 412.736C64.814 412.736 65.918 411.616 65.918 409.76C65.918 407.904 64.814 406.8 63.422 406.8C62.03 406.8 60.942 407.904 60.942 409.76C60.942 411.616 62.03 412.736 63.422 412.736ZM74.5574 414.24C71.2454 414.24 68.6854 411.728 68.6854 408.24C68.6854 404.848 71.1174 402.272 74.4614 402.272C77.4214 402.272 79.4214 404.08 80.1254 406.464H78.0774C77.6454 404.992 76.3814 403.856 74.4134 403.856C72.1414 403.856 70.5094 405.568 70.5094 408.272C70.5094 410.816 72.0614 412.736 74.6214 412.736C76.7494 412.736 78.0934 411.424 78.4134 409.456H74.4454V408.048H80.2694C80.3334 411.728 78.0774 414.24 74.5574 414.24ZM83.5954 409.664V414H81.9794V405.52H83.4834V407.312C84.0754 406.144 85.3554 405.408 86.7474 405.408V407.088C84.9234 406.992 83.5954 407.792 83.5954 409.664ZM93.3223 410.512V405.52H94.9383V414H93.4343V412.656C92.9863 413.536 91.9943 414.16 90.8423 414.16C89.1303 414.16 87.9463 413.152 87.9463 410.976V405.52H89.5623V410.656C89.5623 412.128 90.2983 412.736 91.3543 412.736C92.4423 412.736 93.3223 411.84 93.3223 410.512ZM105.279 409.76C105.279 412.304 103.807 414.16 101.519 414.16C100.319 414.16 99.2945 413.552 98.6865 412.48V414H97.1825V402.512H98.7985V406.976C99.3905 405.936 100.367 405.36 101.519 405.36C103.791 405.36 105.279 407.184 105.279 409.76ZM103.599 409.76C103.599 407.84 102.591 406.784 101.199 406.784C99.8545 406.784 98.7985 407.824 98.7985 409.728C98.7985 411.6 99.8225 412.72 101.199 412.72C102.591 412.72 103.599 411.648 103.599 409.76ZM111.877 409.216V414H110.261V402.512H111.877V406.88C112.437 405.968 113.301 405.36 114.469 405.36C116.213 405.36 117.365 406.48 117.365 408.512V414H115.749V409.056C115.749 407.6 115.109 406.784 113.909 406.784C112.805 406.784 111.877 407.712 111.877 409.216ZM122.999 414.16C120.551 414.16 118.903 412.384 118.903 409.712C118.903 407.2 120.615 405.36 122.951 405.36C125.479 405.36 127.159 407.408 126.871 410.16H120.551C120.679 411.888 121.543 412.896 122.967 412.896C124.167 412.896 124.999 412.24 125.271 411.136H126.871C126.455 413.024 124.999 414.16 122.999 414.16ZM122.919 406.576C121.623 406.576 120.743 407.504 120.567 409.088H125.159C125.079 407.52 124.231 406.576 122.919 406.576ZM130.221 414H128.589V402.512H130.221V414ZM140.56 409.76C140.56 412.32 139.088 414.16 136.816 414.16C135.664 414.16 134.688 413.584 134.08 412.56V417.088H132.464V405.52H133.968V407.072C134.576 405.984 135.616 405.36 136.816 405.36C139.072 405.36 140.56 407.2 140.56 409.76ZM138.88 409.76C138.88 407.856 137.872 406.784 136.48 406.784C135.136 406.784 134.08 407.856 134.08 409.76C134.08 411.632 135.12 412.72 136.48 412.72C137.872 412.72 138.88 411.664 138.88 409.76ZM148.918 411.472C148.918 413.136 147.622 414.16 145.366 414.16C143.126 414.16 141.798 413.056 141.638 411.232H143.19C143.254 412.288 144.102 412.944 145.398 412.944C146.534 412.944 147.286 412.544 147.286 411.744C147.286 411.04 146.854 410.736 145.798 410.528L144.422 410.272C142.854 409.968 141.974 409.168 141.974 407.888C141.974 406.4 143.27 405.36 145.238 405.36C147.27 405.36 148.646 406.448 148.79 408.192H147.238C147.142 407.168 146.39 406.576 145.254 406.576C144.23 406.576 143.542 407.008 143.542 407.744C143.542 408.432 143.974 408.752 144.998 408.944L146.438 409.216C148.118 409.52 148.918 410.256 148.918 411.472ZM161.066 405.52L156.826 417.088H155.066L156.282 413.888L152.938 405.52H154.682L157.146 411.984L159.434 405.52H161.066ZM165.5 414.16C163.1 414.16 161.34 412.272 161.34 409.76C161.34 407.248 163.1 405.36 165.5 405.36C167.9 405.36 169.66 407.248 169.66 409.76C169.66 412.272 167.9 414.16 165.5 414.16ZM165.5 412.736C166.892 412.736 167.996 411.616 167.996 409.76C167.996 407.904 166.892 406.8 165.5 406.8C164.108 406.8 163.02 407.904 163.02 409.76C163.02 411.616 164.108 412.736 165.5 412.736ZM176.604 410.512V405.52H178.22V414H176.716V412.656C176.268 413.536 175.276 414.16 174.124 414.16C172.412 414.16 171.228 413.152 171.228 410.976V405.52H172.844V410.656C172.844 412.128 173.58 412.736 174.636 412.736C175.724 412.736 176.604 411.84 176.604 410.512ZM190.528 411.472C190.528 413.136 189.232 414.16 186.976 414.16C184.736 414.16 183.408 413.056 183.248 411.232H184.799C184.864 412.288 185.712 412.944 187.008 412.944C188.144 412.944 188.896 412.544 188.896 411.744C188.896 411.04 188.464 410.736 187.408 410.528L186.032 410.272C184.464 409.968 183.584 409.168 183.584 407.888C183.584 406.4 184.88 405.36 186.848 405.36C188.88 405.36 190.256 406.448 190.4 408.192H188.848C188.752 407.168 188 406.576 186.864 406.576C185.84 406.576 185.152 407.008 185.152 407.744C185.152 408.432 185.584 408.752 186.608 408.944L188.048 409.216C189.728 409.52 190.528 410.256 190.528 411.472ZM196.967 412.432V413.856C196.471 414.08 196.039 414.16 195.527 414.16C193.959 414.16 192.871 413.312 192.871 411.44V406.896H190.998V405.52H192.871V403.008H194.487V405.52H197.047V406.896H194.487V411.072C194.487 412.24 195.047 412.656 195.911 412.656C196.295 412.656 196.631 412.592 196.967 412.432ZM203.725 414V412.688C203.197 413.632 202.253 414.16 201.005 414.16C199.245 414.16 198.093 413.152 198.093 411.6C198.093 409.936 199.421 409.072 201.949 409.072C202.445 409.072 202.845 409.088 203.533 409.168V408.544C203.533 407.328 202.877 406.64 201.757 406.64C200.573 406.64 199.853 407.344 199.805 408.528H198.333C198.413 406.624 199.773 405.36 201.757 405.36C203.853 405.36 205.069 406.544 205.069 408.56V414H203.725ZM199.629 411.552C199.629 412.432 200.285 413.008 201.325 413.008C202.685 413.008 203.533 412.16 203.533 410.864V410.176C202.909 410.096 202.461 410.08 202.045 410.08C200.429 410.08 199.629 410.56 199.629 411.552ZM214.004 405.52L209.764 417.088H208.004L209.22 413.888L205.876 405.52H207.62L210.084 411.984L212.372 405.52H214.004ZM220.463 403.552C220.463 404.16 219.983 404.624 219.295 404.624C218.607 404.624 218.111 404.16 218.111 403.552C218.111 402.928 218.607 402.48 219.295 402.48C219.983 402.48 220.463 402.928 220.463 403.552ZM220.111 414H218.495V405.52H220.111V414ZM223.97 409.216V414H222.354V405.52H223.858V406.928C224.434 405.984 225.394 405.36 226.562 405.36C228.306 405.36 229.458 406.48 229.458 408.512V414H227.842V409.056C227.842 407.6 227.202 406.784 226.002 406.784C224.898 406.784 223.97 407.712 223.97 409.216ZM238.292 414.176C235.972 414.176 234.34 412.352 234.34 409.76C234.34 407.2 236.004 405.36 238.292 405.36C240.388 405.36 241.908 406.752 242.212 408.96H240.516C240.34 407.6 239.492 406.784 238.308 406.784C236.916 406.784 236.004 407.968 236.004 409.76C236.004 411.568 236.916 412.736 238.308 412.736C239.508 412.736 240.34 411.936 240.532 410.56H242.212C241.924 412.8 240.42 414.176 238.292 414.176ZM247.313 414.16C244.913 414.16 243.153 412.272 243.153 409.76C243.153 407.248 244.913 405.36 247.313 405.36C249.713 405.36 251.473 407.248 251.473 409.76C251.473 412.272 249.713 414.16 247.313 414.16ZM247.313 412.736C248.705 412.736 249.809 411.616 249.809 409.76C249.809 407.904 248.705 406.8 247.313 406.8C245.921 406.8 244.833 407.904 244.833 409.76C244.833 411.616 245.921 412.736 247.313 412.736ZM254.736 409.216V414H253.12V405.52H254.624V406.928C255.2 405.984 256.16 405.36 257.328 405.36C259.072 405.36 260.224 406.48 260.224 408.512V414H258.608V409.056C258.608 407.6 257.968 406.784 256.768 406.784C255.664 406.784 254.736 407.712 254.736 409.216ZM267.123 412.432V413.856C266.627 414.08 266.195 414.16 265.683 414.16C264.115 414.16 263.027 413.312 263.027 411.44V406.896H261.155V405.52H263.027V403.008H264.643V405.52H267.203V406.896H264.643V411.072C264.643 412.24 265.203 412.656 266.067 412.656C266.451 412.656 266.787 412.592 267.123 412.432ZM270.361 409.664V414H268.745V405.52H270.249V407.312C270.841 406.144 272.121 405.408 273.513 405.408V407.088C271.689 406.992 270.361 407.792 270.361 409.664ZM278.313 414.16C275.913 414.16 274.153 412.272 274.153 409.76C274.153 407.248 275.913 405.36 278.313 405.36C280.713 405.36 282.473 407.248 282.473 409.76C282.473 412.272 280.713 414.16 278.313 414.16ZM278.313 412.736C279.705 412.736 280.809 411.616 280.809 409.76C280.809 407.904 279.705 406.8 278.313 406.8C276.921 406.8 275.833 407.904 275.833 409.76C275.833 411.616 276.921 412.736 278.313 412.736ZM285.752 414H284.12V402.512H285.752V414ZM294.891 414.16C292.491 414.16 290.731 412.272 290.731 409.76C290.731 407.248 292.491 405.36 294.891 405.36C297.291 405.36 299.051 407.248 299.051 409.76C299.051 412.272 297.291 414.16 294.891 414.16ZM294.891 412.736C296.283 412.736 297.387 411.616 297.387 409.76C297.387 407.904 296.283 406.8 294.891 406.8C293.499 406.8 292.411 407.904 292.411 409.76C292.411 411.616 293.499 412.736 294.891 412.736ZM302.848 414H301.232V406.896H299.36V405.52H301.232V404.896C301.232 403.264 302.112 402.368 303.712 402.368C304.192 402.368 304.576 402.448 304.896 402.576V403.888C304.64 403.776 304.352 403.744 304.064 403.744C303.296 403.744 302.848 404.096 302.848 404.912V405.52H305.216V406.896H302.848V414ZM316.832 405.52L312.592 417.088H310.832L312.048 413.888L308.704 405.52H310.448L312.912 411.984L315.2 405.52H316.832ZM321.266 414.16C318.866 414.16 317.106 412.272 317.106 409.76C317.106 407.248 318.866 405.36 321.266 405.36C323.666 405.36 325.426 407.248 325.426 409.76C325.426 412.272 323.666 414.16 321.266 414.16ZM321.266 412.736C322.658 412.736 323.762 411.616 323.762 409.76C323.762 407.904 322.658 406.8 321.266 406.8C319.874 406.8 318.786 407.904 318.786 409.76C318.786 411.616 319.874 412.736 321.266 412.736ZM332.369 410.512V405.52H333.985V414H332.481V412.656C332.033 413.536 331.041 414.16 329.889 414.16C328.177 414.16 326.993 413.152 326.993 410.976V405.52H328.609V410.656C328.609 412.128 329.345 412.736 330.401 412.736C331.489 412.736 332.369 411.84 332.369 410.512ZM337.845 409.664V414H336.229V405.52H337.733V407.312C338.325 406.144 339.605 405.408 340.997 405.408V407.088C339.173 406.992 337.845 407.792 337.845 409.664ZM350.404 412.432V413.856C349.908 414.08 349.476 414.16 348.964 414.16C347.396 414.16 346.308 413.312 346.308 411.44V406.896H344.436V405.52H346.308V403.008H347.924V405.52H350.484V406.896H347.924V411.072C347.924 412.24 348.484 412.656 349.348 412.656C349.732 412.656 350.068 412.592 350.404 412.432ZM353.994 403.552C353.994 404.16 353.514 404.624 352.826 404.624C352.138 404.624 351.642 404.16 351.642 403.552C351.642 402.928 352.138 402.48 352.826 402.48C353.514 402.48 353.994 402.928 353.994 403.552ZM353.642 414H352.026V405.52H353.642V414ZM357.502 414H355.886V405.52H357.39V406.928C357.966 405.952 358.878 405.36 360.046 405.36C361.294 405.36 362.238 406 362.622 407.12C363.214 406.032 364.19 405.36 365.486 405.36C367.23 405.36 368.35 406.496 368.35 408.512V414H366.734V409.024C366.734 407.616 366.11 406.784 364.926 406.784C363.822 406.784 362.926 407.712 362.926 409.136V414H361.31V409.024C361.31 407.616 360.686 406.784 359.502 406.784C358.382 406.784 357.502 407.712 357.502 409.136V414ZM373.999 414.16C371.551 414.16 369.903 412.384 369.903 409.712C369.903 407.2 371.615 405.36 373.951 405.36C376.479 405.36 378.159 407.408 377.871 410.16H371.551C371.679 411.888 372.543 412.896 373.967 412.896C375.167 412.896 375.999 412.24 376.271 411.136H377.871C377.455 413.024 375.999 414.16 373.999 414.16ZM373.919 406.576C372.623 406.576 371.743 407.504 371.567 409.088H376.159C376.079 407.52 375.231 406.576 373.919 406.576ZM381.546 412.848C381.546 413.568 381.05 414.08 380.314 414.08C379.594 414.08 379.082 413.568 379.082 412.848C379.082 412.096 379.594 411.584 380.314 411.584C381.05 411.584 381.546 412.096 381.546 412.848Z" fill="white"/>
<path d="M347.875 147C343.75 143.625 339.625 140.25 335.5 136.875C334.375 136.125 333.625 135 333.25 133.875C327.625 124.125 322 114.375 316.75 104.625C314.875 101.25 312.25 99.75 308.5 99.75C296.125 99.75 284.125 99.75 271.75 99.75C266.125 99.75 263.875 102 263.875 107.625C263.875 133.125 263.875 159 263.875 184.5C263.875 186.375 263.5 186.75 261.625 186.75C238.375 186.75 215.125 186.75 191.875 186.75C190.375 186.75 190 186.375 189.25 184.875C187 177.375 179.875 172.5 171.25 171.75C164.5 171.375 156.25 175.875 153.625 182.25C152.125 186 149.875 187.125 146.5 186.375C146.5 186.375 146.5 186.375 146.125 186.375C142.75 186.375 142 185.625 142 181.875C142 148.125 142 114.375 142 81C142 77.625 142.75 76.5 146.125 76.5C165.625 76.5 185.5 76.5 205 76.5C231.25 76.5 257.5 76.5 283.75 76.5C285.25 76.5 286 76.875 286.375 78.375C287.125 81.75 288.25 85.125 289.375 88.125C289.75 89.625 290.5 90.75 291.625 91.125C294.25 91.875 296.125 89.625 295.375 86.625C294.25 83.25 293.5 79.875 292.375 76.5C290.875 71.625 289 70.125 283.75 70.125C238 70.125 191.875 70.125 146.125 70.125C139 70.125 135.625 73.5 135.625 81C135.625 114.75 135.625 148.125 135.625 181.875C135.625 182.625 135.625 183 135.625 183.75C136 188.25 139 192 143.875 192.375C146.5 193.5 148.375 193.5 150.25 193.5C151.375 193.5 151.75 193.875 152.125 195C153.625 204.375 161.5 210.75 170.875 211.125C180.25 211.125 188.125 204.75 190 195.375C190.375 193.875 190.75 193.5 192.25 193.5C226.75 193.5 260.875 193.5 295.375 193.5C296.875 193.5 297.25 193.875 297.625 195.375C299.5 204.375 306.625 210.375 315.625 211.125C324.25 211.5 332.125 206.25 335.125 197.625C335.5 196.5 335.125 194.625 336.25 193.875C337.375 193.5 338.875 193.5 340.375 193.875C345.625 194.25 349.75 192.375 351.625 187.125C351.625 175.5 351.625 163.875 351.625 152.25C350.875 150 349.375 148.5 347.875 147ZM171.25 204.75C164.125 204.75 158.125 198.75 158.5 191.625C158.5 184.5 164.5 178.5 171.625 178.5C178.75 178.5 184.75 184.5 184.75 191.625C184.375 199.125 178.375 204.75 171.25 204.75ZM316.75 204.75C309.625 204.75 303.625 198.75 304 191.625C304 184.5 310 178.5 317.125 178.875C324.25 178.875 330.25 184.875 330.25 192C329.875 198.75 323.875 204.75 316.75 204.75ZM345.625 184.5C345.625 186 344.875 187.125 343.375 187.125C341.125 187.125 338.875 187.125 337 187.125C335.875 187.125 335.875 186.375 335.5 185.625C332.5 177.75 326.875 173.25 318.625 172.5C310 171.75 301.75 177 298.75 185.25C298.375 186.75 298 187.125 296.5 187.125C288.625 187.125 280.75 187.125 272.875 187.125C271 187.125 270.625 186.75 270.625 184.875C270.625 172.125 270.625 159.375 270.625 146.625C270.625 133.875 270.625 121.125 270.625 108.375C270.625 106.875 271 106.5 272.5 106.5C284.5 106.5 296.5 106.5 308.5 106.5C310 106.5 310.75 106.875 311.5 108.375C317.125 118.5 322.75 128.25 328.375 138C329.125 139.125 329.875 140.25 331 141.375C335.5 145.125 340 148.875 344.5 152.25C345.25 152.625 345.625 153 345.625 154.125C345.625 155.625 345.625 156.375 343.75 156C341.5 155.625 339.625 156 337.375 156C332.875 156 329.875 159.75 331 164.25C331.375 166.125 331.75 168 332.125 169.875C333.25 173.625 335.125 175.5 339.25 175.5C340.75 175.5 342.625 175.5 344.125 175.5C345.25 175.5 345.625 175.875 345.25 177C345.625 179.625 345.625 181.875 345.625 184.5ZM343 169.5C338.5 169.5 338.5 169.5 337.75 165.75C337 162.75 337 162.75 340 162.75C340.375 162.75 340.75 162.75 341.125 162.75C345.25 162.75 345.25 162.75 345.625 167.25C345.625 169.125 344.875 169.5 343 169.5Z" fill="#FFF5F0" stroke="#FFF5F0" stroke-width="0.1"/>
<path d="M148.375 151.125C146.125 151.875 145.375 153.375 145 155.625C145 158.25 145 160.5 145 163.125C145 166.125 146.875 167.625 149.5 168C150.25 168 151 168 151.75 168C185.875 168 220 168 254.125 168C254.5 168 255.25 168 255.625 168C259 167.625 260.875 166.125 260.875 162.75C260.875 160.5 260.875 158.25 260.875 156C260.875 153.75 260.125 151.875 257.875 151.125C256.375 150.75 256.375 150 256.375 148.875C256.375 141.75 256.375 134.625 256.375 127.5C256.375 124.125 256 120.75 258.25 117.75C258.625 117.375 258.625 117 258.625 116.25C259.375 111.75 259.75 107.25 257.875 103.125C256.375 99.75 254.875 96 253.375 92.25C251.875 88.125 250 87.375 245.875 87.375C226 87.375 206.5 87.375 186.625 87.375C185.875 87.375 184.75 87.375 184 87.75C182.5 88.125 181.75 89.25 181.75 90.75C181.75 92.25 182.875 93.375 184.375 93.375C185.125 93.375 185.875 93.375 186.625 93.375C197.125 93.375 207.625 93.375 218.125 93.375C227.125 93.375 236.125 93.375 245.125 93.375C245.875 93.375 247 93 247.375 94.5C248.5 97.5 249.625 100.5 251.125 103.875C218.125 103.875 185.125 103.875 152.5 103.875C153.625 100.875 154.75 97.875 155.875 94.875C156.25 93.75 157 93.375 158.125 93.375C161.875 93.375 166 93.375 169.75 93.375C172.375 93.375 173.5 92.25 173.875 90.375C173.875 88.5 172.375 87 170.125 87C166 87 161.5 87 157.375 87C154.375 87 152.125 88.5 151 91.5C149.875 94.875 148.75 98.25 146.875 101.25C145 105 144.625 108.75 145 112.5C145 115.875 146.125 118.875 148.375 121.5C149.125 122.25 149.125 123 149.125 123.75C149.125 132 149.125 140.25 149.125 148.5C149.125 150 149.125 150.75 148.375 151.125ZM254.875 157.5C255.25 159 255.25 160.5 254.875 161.625C254.875 162.375 253.75 162 253 162C236.5 162 219.625 162 203.125 162C186.625 162 170.125 162 154 162C153.25 162 152.125 162.375 151.75 161.625C151.375 160.125 151.75 159 151.75 157.5C151.75 157.5 152.125 157.125 152.5 157.125C152.875 157.125 153.625 157.125 154 157.125C187 157.125 220 157.125 253 157.125C253.375 157.125 254.5 156.375 254.875 157.5ZM241.375 110.625C242.875 110.625 244 110.625 245.5 110.625C247.75 110.625 249.625 110.625 251.875 110.625C252.25 110.625 253 110.25 253 111.375C253.375 115.875 251.5 119.25 247.375 120.75C243.625 121.875 239.5 119.625 238 115.875C238 115.5 238 115.5 237.625 115.125C237.25 111.375 237.625 110.625 241.375 110.625ZM216.25 111.75C216.25 111 216.625 110.625 217.375 110.625C219.625 110.625 221.875 110.625 223.75 110.625C226 110.625 228.25 110.625 230.125 110.625C230.875 110.625 231.25 111 231.25 111.75C231.625 116.625 228.25 120.75 223.375 120.75C219.25 120.75 215.875 117 216.25 111.75ZM196 110.625C198.25 110.625 200.125 110.625 202.375 110.625C204.625 110.625 206.5 110.625 208.75 110.625C209.125 110.625 209.875 110.25 209.875 111.375C210.25 115.875 208.375 119.25 204.25 120.75C200.5 121.875 196.375 119.625 194.875 115.875C194.5 114.75 194.5 113.25 194.5 112.125C194.5 110.625 195.25 110.625 196 110.625ZM172.75 111.75C172.75 111 173.125 110.625 173.875 110.625C176.125 110.625 178.375 110.625 180.25 110.625C182.5 110.625 184.75 110.625 186.625 110.625C187.375 110.625 187.75 110.625 187.75 111.75C188.125 117 184.75 120.75 179.875 120.75C176.125 120.75 172.75 117 172.75 111.75ZM170.875 123C177.25 128.625 184.375 128.625 190.75 123C191.5 122.25 191.875 122.25 192.625 123C198.625 128.625 206.5 128.625 212.125 123C212.875 122.25 213.25 122.25 214.375 123C220.375 128.625 227.875 128.625 233.875 123C234.625 122.625 235 121.875 235.75 122.625C239.875 126.75 245.125 127.875 250.75 126C250.75 129.375 250.75 132.75 250.75 135.75C250.75 139.875 250.75 144.375 250.75 148.5C250.75 149.625 250.75 150.375 249.25 150.375C218.5 150.375 187.75 150.375 157 150.375C156.25 150.375 155.5 150.75 155.5 149.25C155.5 141.75 155.5 134.25 155.5 126.375C160.75 127.125 165.25 126.375 169 122.25C169.75 121.875 170.125 122.25 170.875 123ZM154.75 110.625C156.25 110.625 157.75 110.625 159.25 110.625C161.5 110.625 163.375 110.625 165.625 110.625C166.375 110.625 166.75 110.25 167.125 111.375C167.875 115.5 165.25 119.625 161.125 120.75C157 121.5 152.875 119.25 152.125 115.125V114.75C150.625 111 151 110.625 154.75 110.625Z" fill="#FFF5F0" stroke="#FFF5F0" stroke-width="0.1"/>
<path d="M308.5 115.125C307.375 113.25 305.875 112.5 303.625 112.5C295.75 112.5 287.5 112.5 279.625 112.5C275.875 112.5 274.375 114 274.375 117.75C274.375 125.25 274.375 132.375 274.375 139.875C274.375 143.625 275.875 145.125 279.625 145.125C285.25 145.125 290.875 145.125 296.5 145.125C302.125 145.125 307.75 145.125 313 145.125C319.375 145.125 322.375 139.875 319.375 134.625C315.625 127.875 311.875 121.5 308.5 115.125ZM312.25 138.375C307.375 138.375 302.5 138.375 297.625 138.375C292.75 138.375 287.5 138.375 282.625 138.375C281.125 138.375 280.75 138 280.75 136.5C280.75 130.875 280.75 125.625 280.75 120C280.75 118.5 281.125 118.125 282.625 118.125C289 118.125 295.375 118.125 302.125 118.125C303.25 118.125 303.625 118.5 304.375 119.25C307.375 124.875 310.75 130.5 313.75 136.125C314.5 138.375 313.75 138.375 312.25 138.375Z" fill="#FFF5F0" stroke="#FFF5F0" stroke-width="0.1"/>
<path d="M171.625 181.5C166.375 181.125 161.5 185.625 161.125 191.25C160.75 196.875 165.25 201.375 170.875 201.75C176.5 202.125 181 197.625 181.375 192C181.75 186.375 177.25 181.875 171.625 181.5ZM171.25 195.375C169 195.375 167.125 193.5 167.125 191.625C167.125 189.75 169 187.875 171.25 187.875C173.125 187.875 175 189.75 175 191.625C175 193.875 173.5 195.375 171.25 195.375Z" fill="#FFF5F0"/>
<path d="M316.75 181.5C311.125 181.5 306.625 186 306.625 191.625C306.625 197.25 311.125 201.75 316.75 201.75C322.375 201.75 326.875 197.25 326.875 191.625C326.875 186 322.375 181.5 316.75 181.5ZM316.75 195.375C314.5 195.375 313 193.5 313 191.25C313 189.375 314.875 187.5 316.75 187.5C318.625 187.5 320.5 189.375 320.5 191.625C320.5 193.875 318.625 195.375 316.75 195.375Z" fill="#FFF5F0"/>
</svg>
