<svg width="488" height="480" viewBox="0 0 488 480" fill="none" xmlns="http://www.w3.org/2000/svg">
<g clip-path="url(#clip0_7280_26968)">
<rect width="488" height="480" rx="8" fill="#FF4F00"/>
<path d="M58.832 151.48C52.144 151.48 46.896 146.552 46.896 139.384C46.896 132.6 51.888 127.544 58.64 127.544C64.4 127.544 68.656 130.872 70.256 136.024H63.088C62.512 134.264 60.816 132.952 58.48 132.952C55.504 132.952 53.104 135.032 53.104 139.544C53.104 143.384 54.992 146.36 59.152 146.36C61.776 146.36 63.408 144.888 64.08 142.968H58.544V138.2H70.544C71.024 145.784 66.448 151.48 58.832 151.48ZM81.0368 151.288C75.7248 151.288 72.1728 147.704 72.1728 142.36C72.1728 137.208 75.8848 133.464 81.0048 133.464C86.7008 133.464 90.5088 138.104 89.5168 143.768H77.8368C78.1248 145.944 79.1488 147.032 80.9088 147.032C82.4448 147.032 83.4688 146.392 83.9488 145.144H89.4208C88.3647 149.08 85.3248 151.288 81.0368 151.288ZM80.8767 137.496C79.2448 137.496 78.2848 138.424 77.9008 140.344H83.6608C83.5968 138.616 82.5088 137.496 80.8767 137.496ZM103.563 145.624V150.392C102.347 151.064 101.195 151.32 99.6588 151.32C95.7868 151.32 93.5148 149.016 93.5148 145.08V138.552H90.3148V133.784H93.5148V128.728H98.9868V133.784H103.691V138.552H98.9868V143.8C98.9868 145.464 99.6908 146.232 101.195 146.232C102.091 146.232 102.955 146.008 103.563 145.624ZM129.367 133.784L121.175 157.176H115.191L117.591 150.808L110.871 133.784H116.823L120.535 144.44L123.863 133.784H129.367ZM138.29 151.32C133.202 151.32 129.298 147.32 129.298 142.392C129.298 137.464 133.202 133.464 138.29 133.464C143.378 133.464 147.282 137.464 147.282 142.392C147.282 147.32 143.378 151.32 138.29 151.32ZM138.29 146.424C139.986 146.424 141.586 145.08 141.586 142.392C141.586 139.704 139.986 138.392 138.29 138.392C136.594 138.392 134.994 139.704 134.994 142.392C134.994 145.08 136.594 146.424 138.29 146.424ZM160 143.608V133.784H165.472V151H160.448V149.144C159.488 150.424 157.664 151.32 155.648 151.32C152.224 151.32 149.632 149.176 149.632 144.632V133.784H155.104V143.608C155.104 145.496 156.032 146.424 157.568 146.424C158.656 146.424 160 145.56 160 143.608ZM174.514 143.064V151H169.042V133.784H174.066V136.824C175.378 134.808 178.098 133.656 180.85 133.656V139.352C176.978 138.968 174.514 139.256 174.514 143.064ZM197.54 151.32C192.452 151.32 188.548 147.32 188.548 142.392C188.548 137.464 192.452 133.464 197.54 133.464C202.628 133.464 206.532 137.464 206.532 142.392C206.532 147.32 202.628 151.32 197.54 151.32ZM197.54 146.424C199.236 146.424 200.836 145.08 200.836 142.392C200.836 139.704 199.236 138.392 197.54 138.392C195.844 138.392 194.244 139.704 194.244 142.392C194.244 145.08 195.844 146.424 197.54 146.424ZM222.557 151L219.901 141.24L217.245 151H211.773L206.941 133.784H212.285L214.685 143.224L217.213 133.784H222.685L225.085 143.224L227.485 133.784H232.861L227.997 151H222.557ZM240.295 141.944V151H234.823V133.784H239.847V135.864C241.191 134.36 242.791 133.464 244.967 133.464C248.359 133.464 250.759 135.736 250.759 139.928V151H245.287V141.752C245.287 139.576 244.519 138.392 242.855 138.392C241.511 138.392 240.295 139.352 240.295 141.944ZM55.376 187.32C50.256 187.32 46.704 183.64 46.704 178.392C46.704 173.272 50.416 169.464 55.376 169.464C60.112 169.464 63.632 172.664 64.112 177.464H58.288C58.192 175.576 57.072 174.392 55.408 174.392C53.488 174.392 52.368 175.864 52.368 178.392C52.368 180.984 53.456 182.424 55.408 182.424C57.104 182.424 58.16 181.272 58.288 179.32H64.112C63.632 184.248 60.272 187.32 55.376 187.32ZM76.8125 179.608V169.784H82.2845V187H77.2605V185.144C76.3005 186.424 74.4765 187.32 72.4605 187.32C69.0365 187.32 66.4445 185.176 66.4445 180.632V169.784H71.9165V179.608C71.9165 181.496 72.8445 182.424 74.3805 182.424C75.4685 182.424 76.8125 181.56 76.8125 179.608ZM101.119 181.144C101.119 184.952 98.3025 187.32 93.1185 187.32C87.9345 187.32 85.1185 184.888 84.7665 180.92H90.0145C90.0145 182.36 91.3265 183.288 93.2145 183.288C94.4625 183.288 95.5825 183 95.5825 182.104C95.5825 181.336 95.0065 181.016 93.8225 180.792L90.4305 180.184C87.4225 179.64 85.5025 177.912 85.5025 175.128C85.5025 171.8 88.3185 169.464 92.8305 169.464C97.3425 169.464 100.479 171.864 100.799 175.704H95.5505C95.4225 174.328 94.3665 173.496 92.8625 173.496C91.5825 173.496 90.7505 173.848 90.7505 174.616C90.7505 175.352 91.2945 175.576 92.3825 175.768L96.0305 176.44C99.3585 177.048 101.119 178.68 101.119 181.144ZM114.844 181.624V186.392C113.628 187.064 112.476 187.32 110.94 187.32C107.068 187.32 104.796 185.016 104.796 181.08V174.552H101.596V169.784H104.796V164.728H110.268V169.784H114.972V174.552H110.268V179.8C110.268 181.464 110.972 182.232 112.476 182.232C113.372 182.232 114.236 182.008 114.844 181.624ZM125.009 187.32C119.921 187.32 116.017 183.32 116.017 178.392C116.017 173.464 119.921 169.464 125.009 169.464C130.097 169.464 134.001 173.464 134.001 178.392C134.001 183.32 130.097 187.32 125.009 187.32ZM125.009 182.424C126.705 182.424 128.305 181.08 128.305 178.392C128.305 175.704 126.705 174.392 125.009 174.392C123.312 174.392 121.713 175.704 121.713 178.392C121.713 181.08 123.312 182.424 125.009 182.424ZM141.983 187H136.511V169.784H141.535V171.896C142.847 170.36 144.255 169.464 146.495 169.464C148.671 169.464 150.399 170.392 151.359 172.12C152.831 170.456 154.367 169.464 156.895 169.464C160.319 169.464 162.719 171.736 162.719 175.928V187H157.247V177.624C157.247 175.64 156.447 174.392 154.879 174.392C153.503 174.392 152.351 175.352 152.351 177.656V187H146.879V177.624C146.879 175.64 146.079 174.392 144.511 174.392C143.103 174.392 141.983 175.352 141.983 177.656V187ZM178.359 187H172.823V164.024H178.359V187ZM188.156 165.784C188.156 167.576 186.716 168.888 184.636 168.888C182.556 168.888 181.116 167.576 181.116 165.784C181.116 163.96 182.556 162.648 184.636 162.648C186.716 162.648 188.156 163.96 188.156 165.784ZM187.42 187H181.948V169.784H187.42V187ZM196.483 177.944V187H191.011V169.784H196.035V171.864C197.379 170.36 198.979 169.464 201.155 169.464C204.547 169.464 206.947 171.736 206.947 175.928V187H201.475V177.752C201.475 175.576 200.707 174.392 199.043 174.392C197.699 174.392 196.483 175.352 196.483 177.944ZM215.858 187H210.386V164.024H215.858V176.76L221.202 169.784H227.506L221.138 177.944L228.402 187H221.426L215.858 179.16V187ZM242.484 187H236.948V164.024H242.484V187ZM252.281 165.784C252.281 167.576 250.841 168.888 248.761 168.888C246.681 168.888 245.241 167.576 245.241 165.784C245.241 163.96 246.681 162.648 248.761 162.648C250.841 162.648 252.281 163.96 252.281 165.784ZM251.545 187H246.073V169.784H251.545V187ZM260.608 187H255.136V164.024H260.608V176.76L265.952 169.784H272.256L265.888 177.944L273.152 187H266.176L260.608 179.16V187ZM281.506 187.288C276.194 187.288 272.642 183.704 272.642 178.36C272.642 173.208 276.354 169.464 281.474 169.464C287.17 169.464 290.978 174.104 289.986 179.768H278.306C278.594 181.944 279.618 183.032 281.378 183.032C282.914 183.032 283.938 182.392 284.418 181.144H289.89C288.833 185.08 285.794 187.288 281.506 187.288ZM281.345 173.496C279.714 173.496 278.754 174.424 278.37 176.344H284.13C284.066 174.616 282.978 173.496 281.345 173.496Z" fill="white"/>
<path d="M51.232 372H49.008V376H47.248V364.512H51.232C53.808 364.512 55.472 365.824 55.472 368.224C55.472 370.64 53.808 372 51.232 372ZM51.216 366H49.008V370.512H51.216C52.768 370.512 53.712 369.664 53.712 368.24C53.712 366.816 52.768 366 51.216 366ZM60.4361 376.16C57.9881 376.16 56.3401 374.384 56.3401 371.712C56.3401 369.2 58.0521 367.36 60.3881 367.36C62.9161 367.36 64.5961 369.408 64.3081 372.16H57.9881C58.1161 373.888 58.9801 374.896 60.4041 374.896C61.6041 374.896 62.4361 374.24 62.7081 373.136H64.3081C63.8921 375.024 62.4361 376.16 60.4361 376.16ZM60.3561 368.576C59.0601 368.576 58.1801 369.504 58.0041 371.088H62.5961C62.5161 369.52 61.6681 368.576 60.3561 368.576ZM67.6423 371.664V376H66.0263V367.52H67.5303V369.312C68.1223 368.144 69.4023 367.408 70.7943 367.408V369.088C68.9703 368.992 67.6423 369.792 67.6423 371.664ZM74.9415 376H73.3255V368.896H71.4535V367.52H73.3255V366.896C73.3255 365.264 74.2055 364.368 75.8055 364.368C76.2855 364.368 76.6695 364.448 76.9895 364.576V365.888C76.7335 365.776 76.4455 365.744 76.1575 365.744C75.3895 365.744 74.9415 366.096 74.9415 366.912V367.52H77.3095V368.896H74.9415V376ZM81.7955 376.16C79.3475 376.16 77.6995 374.384 77.6995 371.712C77.6995 369.2 79.4115 367.36 81.7475 367.36C84.2755 367.36 85.9555 369.408 85.6675 372.16H79.3475C79.4755 373.888 80.3395 374.896 81.7635 374.896C82.9635 374.896 83.7955 374.24 84.0675 373.136H85.6675C85.2515 375.024 83.7955 376.16 81.7955 376.16ZM81.7155 368.576C80.4195 368.576 79.5395 369.504 79.3635 371.088H83.9555C83.8755 369.52 83.0275 368.576 81.7155 368.576ZM90.5734 376.176C88.2534 376.176 86.6214 374.352 86.6214 371.76C86.6214 369.2 88.2854 367.36 90.5734 367.36C92.6694 367.36 94.1894 368.752 94.4934 370.96H92.7974C92.6214 369.6 91.7734 368.784 90.5894 368.784C89.1974 368.784 88.2854 369.968 88.2854 371.76C88.2854 373.568 89.1974 374.736 90.5894 374.736C91.7894 374.736 92.6214 373.936 92.8134 372.56H94.4934C94.2054 374.8 92.7014 376.176 90.5734 376.176ZM100.904 374.432V375.856C100.408 376.08 99.976 376.16 99.464 376.16C97.896 376.16 96.808 375.312 96.808 373.44V368.896H94.936V367.52H96.808V365.008H98.424V367.52H100.984V368.896H98.424V373.072C98.424 374.24 98.984 374.656 99.848 374.656C100.232 374.656 100.568 374.592 100.904 374.432ZM108.254 376H106.638V368.896H104.766V367.52H106.638V366.896C106.638 365.264 107.518 364.368 109.118 364.368C109.598 364.368 109.982 364.448 110.302 364.576V365.888C110.046 365.776 109.758 365.744 109.47 365.744C108.702 365.744 108.254 366.096 108.254 366.912V367.52H110.622V368.896H108.254V376ZM115.172 376.16C112.772 376.16 111.012 374.272 111.012 371.76C111.012 369.248 112.772 367.36 115.172 367.36C117.572 367.36 119.332 369.248 119.332 371.76C119.332 374.272 117.572 376.16 115.172 376.16ZM115.172 374.736C116.564 374.736 117.668 373.616 117.668 371.76C117.668 369.904 116.564 368.8 115.172 368.8C113.78 368.8 112.692 369.904 112.692 371.76C112.692 373.616 113.78 374.736 115.172 374.736ZM122.595 371.664V376H120.979V367.52H122.483V369.312C123.075 368.144 124.355 367.408 125.747 367.408V369.088C123.923 368.992 122.595 369.792 122.595 371.664ZM137.41 367.52L133.17 379.088H131.41L132.626 375.888L129.282 367.52H131.026L133.49 373.984L135.778 367.52H137.41ZM141.844 376.16C139.444 376.16 137.684 374.272 137.684 371.76C137.684 369.248 139.444 367.36 141.844 367.36C144.244 367.36 146.004 369.248 146.004 371.76C146.004 374.272 144.244 376.16 141.844 376.16ZM141.844 374.736C143.236 374.736 144.34 373.616 144.34 371.76C144.34 369.904 143.236 368.8 141.844 368.8C140.452 368.8 139.364 369.904 139.364 371.76C139.364 373.616 140.452 374.736 141.844 374.736ZM152.947 372.512V367.52H154.563V376H153.059V374.656C152.611 375.536 151.619 376.16 150.467 376.16C148.755 376.16 147.571 375.152 147.571 372.976V367.52H149.187V372.656C149.187 374.128 149.923 374.736 150.979 374.736C152.067 374.736 152.947 373.84 152.947 372.512ZM158.424 371.664V376H156.808V367.52H158.312V369.312C158.904 368.144 160.184 367.408 161.576 367.408V369.088C159.752 368.992 158.424 369.792 158.424 371.664ZM174.294 371.76C174.294 374.304 172.822 376.16 170.534 376.16C169.334 376.16 168.31 375.552 167.702 374.48V376H166.198V364.512H167.814V368.976C168.406 367.936 169.382 367.36 170.534 367.36C172.806 367.36 174.294 369.184 174.294 371.76ZM172.614 371.76C172.614 369.84 171.606 368.784 170.214 368.784C168.87 368.784 167.814 369.824 167.814 371.728C167.814 373.6 168.838 374.72 170.214 374.72C171.606 374.72 172.614 373.648 172.614 371.76ZM177.901 365.552C177.901 366.16 177.421 366.624 176.733 366.624C176.045 366.624 175.549 366.16 175.549 365.552C175.549 364.928 176.045 364.48 176.733 364.48C177.421 364.48 177.901 364.928 177.901 365.552ZM177.549 376H175.933V367.52H177.549V376ZM183.344 376.16C180.944 376.16 179.184 374.272 179.184 371.76C179.184 369.248 180.944 367.36 183.344 367.36C185.744 367.36 187.504 369.248 187.504 371.76C187.504 374.272 185.744 376.16 183.344 376.16ZM183.344 374.736C184.736 374.736 185.84 373.616 185.84 371.76C185.84 369.904 184.736 368.8 183.344 368.8C181.952 368.8 180.864 369.904 180.864 371.76C180.864 373.616 181.952 374.736 183.344 374.736ZM191.109 375.312C191.109 376.832 189.909 378.016 188.149 378.048V377.136C189.189 377.104 189.893 376.544 189.989 375.76C189.845 375.808 189.749 375.824 189.637 375.824C189.029 375.824 188.581 375.328 188.581 374.736C188.581 374.048 189.093 373.6 189.749 373.6C190.629 373.6 191.109 374.24 191.109 375.312ZM205.297 376L202.865 366.992L200.417 376H198.609L195.617 364.512H197.345L199.553 373.36L201.969 364.512H203.793L206.177 373.376L208.385 364.512H210.113L207.121 376H205.297ZM213.174 371.216V376H211.558V364.512H213.174V368.88C213.734 367.968 214.598 367.36 215.766 367.36C217.51 367.36 218.661 368.48 218.661 370.512V376H217.046V371.056C217.046 369.6 216.406 368.784 215.206 368.784C214.102 368.784 213.174 369.712 213.174 371.216ZM225.944 376V374.688C225.416 375.632 224.472 376.16 223.224 376.16C221.464 376.16 220.312 375.152 220.312 373.6C220.312 371.936 221.64 371.072 224.168 371.072C224.664 371.072 225.064 371.088 225.752 371.168V370.544C225.752 369.328 225.096 368.64 223.976 368.64C222.792 368.64 222.072 369.344 222.024 370.528H220.552C220.632 368.624 221.992 367.36 223.976 367.36C226.072 367.36 227.288 368.544 227.288 370.56V376H225.944ZM221.848 373.552C221.848 374.432 222.504 375.008 223.544 375.008C224.904 375.008 225.752 374.16 225.752 372.864V372.176C225.128 372.096 224.68 372.08 224.264 372.08C222.648 372.08 221.848 372.56 221.848 373.552ZM234.154 374.432V375.856C233.658 376.08 233.226 376.16 232.714 376.16C231.146 376.16 230.058 375.312 230.058 373.44V368.896H228.186V367.52H230.058V365.008H231.674V367.52H234.234V368.896H231.674V373.072C231.674 374.24 232.234 374.656 233.098 374.656C233.482 374.656 233.818 374.592 234.154 374.432ZM242.465 373.472C242.465 375.136 241.169 376.16 238.913 376.16C236.673 376.16 235.345 375.056 235.185 373.232H236.737C236.801 374.288 237.649 374.944 238.945 374.944C240.081 374.944 240.833 374.544 240.833 373.744C240.833 373.04 240.401 372.736 239.345 372.528L237.969 372.272C236.401 371.968 235.521 371.168 235.521 369.888C235.521 368.4 236.817 367.36 238.785 367.36C240.817 367.36 242.193 368.448 242.337 370.192H240.785C240.689 369.168 239.937 368.576 238.801 368.576C237.777 368.576 237.089 369.008 237.089 369.744C237.089 370.432 237.521 370.752 238.545 370.944L239.985 371.216C241.665 371.52 242.465 372.256 242.465 373.472ZM252.261 376L251.221 373.152H246.261L245.205 376H243.429L247.829 364.512H249.765L254.133 376H252.261ZM248.757 366.432L246.789 371.728H250.693L248.757 366.432ZM263.685 371.76C263.685 374.32 262.213 376.16 259.941 376.16C258.789 376.16 257.813 375.584 257.205 374.56V379.088H255.589V367.52H257.093V369.072C257.701 367.984 258.741 367.36 259.941 367.36C262.197 367.36 263.685 369.2 263.685 371.76ZM262.005 371.76C262.005 369.856 260.997 368.784 259.605 368.784C258.261 368.784 257.205 369.856 257.205 371.76C257.205 373.632 258.245 374.72 259.605 374.72C260.997 374.72 262.005 373.664 262.005 371.76ZM273.419 371.76C273.419 374.32 271.947 376.16 269.675 376.16C268.523 376.16 267.547 375.584 266.939 374.56V379.088H265.323V367.52H266.827V369.072C267.435 367.984 268.475 367.36 269.675 367.36C271.931 367.36 273.419 369.2 273.419 371.76ZM271.739 371.76C271.739 369.856 270.731 368.784 269.339 368.784C267.995 368.784 266.939 369.856 266.939 371.76C266.939 373.632 267.979 374.72 269.339 374.72C270.731 374.72 271.739 373.664 271.739 371.76ZM277.015 375.312C277.015 376.832 275.815 378.016 274.055 378.048V377.136C275.095 377.104 275.799 376.544 275.895 375.76C275.751 375.808 275.655 375.824 275.543 375.824C274.935 375.824 274.487 375.328 274.487 374.736C274.487 374.048 274.999 373.6 275.655 373.6C276.535 373.6 277.015 374.24 277.015 375.312ZM284.707 376H283.091V368.896H281.219V367.52H283.091V366.896C283.091 365.264 283.971 364.368 285.571 364.368C286.051 364.368 286.435 364.448 286.755 364.576V365.888C286.499 365.776 286.211 365.744 285.923 365.744C285.155 365.744 284.707 366.096 284.707 366.912V367.52H287.075V368.896H284.707V376ZM289.923 376H288.291V364.512H289.923V376ZM299.207 367.52L294.967 379.088H293.207L294.423 375.888L291.079 367.52H292.823L295.287 373.984L297.575 367.52H299.207ZM303.577 376.16C301.129 376.16 299.481 374.384 299.481 371.712C299.481 369.2 301.193 367.36 303.529 367.36C306.057 367.36 307.737 369.408 307.449 372.16H301.129C301.257 373.888 302.121 374.896 303.545 374.896C304.745 374.896 305.577 374.24 305.849 373.136H307.449C307.033 375.024 305.577 376.16 303.577 376.16ZM303.497 368.576C302.201 368.576 301.321 369.504 301.145 371.088H305.737C305.657 369.52 304.809 368.576 303.497 368.576ZM310.783 371.664V376H309.167V367.52H310.671V369.312C311.263 368.144 312.543 367.408 313.935 367.408V369.088C312.111 368.992 310.783 369.792 310.783 371.664ZM321.934 373.472C321.934 375.136 320.638 376.16 318.382 376.16C316.142 376.16 314.814 375.056 314.654 373.232H316.206C316.27 374.288 317.118 374.944 318.414 374.944C319.55 374.944 320.302 374.544 320.302 373.744C320.302 373.04 319.87 372.736 318.814 372.528L317.438 372.272C315.87 371.968 314.99 371.168 314.99 369.888C314.99 368.4 316.286 367.36 318.254 367.36C320.286 367.36 321.662 368.448 321.806 370.192H320.254C320.158 369.168 319.406 368.576 318.27 368.576C317.246 368.576 316.558 369.008 316.558 369.744C316.558 370.432 316.99 370.752 318.014 370.944L319.454 371.216C321.134 371.52 321.934 372.256 321.934 373.472ZM325.89 375.312C325.89 376.832 324.69 378.016 322.93 378.048V377.136C323.97 377.104 324.674 376.544 324.77 375.76C324.626 375.808 324.53 375.824 324.418 375.824C323.81 375.824 323.362 375.328 323.362 374.736C323.362 374.048 323.874 373.6 324.53 373.6C325.41 373.6 325.89 374.24 325.89 375.312ZM336.334 376V374.688C335.806 375.632 334.862 376.16 333.614 376.16C331.854 376.16 330.702 375.152 330.702 373.6C330.702 371.936 332.03 371.072 334.558 371.072C335.054 371.072 335.454 371.088 336.142 371.168V370.544C336.142 369.328 335.486 368.64 334.366 368.64C333.182 368.64 332.462 369.344 332.414 370.528H330.942C331.022 368.624 332.382 367.36 334.366 367.36C336.462 367.36 337.678 368.544 337.678 370.56V376H336.334ZM332.238 373.552C332.238 374.432 332.894 375.008 333.934 375.008C335.294 375.008 336.142 374.16 336.142 372.864V372.176C335.518 372.096 335.07 372.08 334.654 372.08C333.038 372.08 332.238 372.56 332.238 373.552ZM341.455 371.216V376H339.839V367.52H341.343V368.928C341.919 367.984 342.879 367.36 344.047 367.36C345.791 367.36 346.943 368.48 346.943 370.512V376H345.327V371.056C345.327 369.6 344.687 368.784 343.487 368.784C342.383 368.784 341.455 369.712 341.455 371.216ZM348.481 371.76C348.481 369.184 349.953 367.36 352.241 367.36C353.377 367.36 354.369 367.936 354.961 368.976V364.512H356.577V376H355.073V374.48C354.465 375.552 353.441 376.16 352.241 376.16C349.953 376.16 348.481 374.304 348.481 371.76ZM350.161 371.76C350.161 373.648 351.153 374.72 352.561 374.72C353.937 374.72 354.961 373.6 354.961 371.728C354.961 369.824 353.905 368.784 352.561 368.784C351.153 368.784 350.161 369.84 350.161 371.76ZM363.783 376H362.167V367.52H363.671V368.928C364.247 367.952 365.159 367.36 366.327 367.36C367.575 367.36 368.519 368 368.903 369.12C369.495 368.032 370.471 367.36 371.767 367.36C373.511 367.36 374.631 368.496 374.631 370.512V376H373.015V371.024C373.015 369.616 372.391 368.784 371.207 368.784C370.103 368.784 369.207 369.712 369.207 371.136V376H367.591V371.024C367.591 369.616 366.967 368.784 365.783 368.784C364.663 368.784 363.783 369.712 363.783 371.136V376ZM380.344 376.16C377.944 376.16 376.184 374.272 376.184 371.76C376.184 369.248 377.944 367.36 380.344 367.36C382.744 367.36 384.504 369.248 384.504 371.76C384.504 374.272 382.744 376.16 380.344 376.16ZM380.344 374.736C381.736 374.736 382.84 373.616 382.84 371.76C382.84 369.904 381.736 368.8 380.344 368.8C378.952 368.8 377.864 369.904 377.864 371.76C377.864 373.616 378.952 374.736 380.344 374.736ZM387.767 371.664V376H386.151V367.52H387.655V369.312C388.247 368.144 389.527 367.408 390.919 367.408V369.088C389.095 368.992 387.767 369.792 387.767 371.664ZM395.655 376.16C393.207 376.16 391.559 374.384 391.559 371.712C391.559 369.2 393.271 367.36 395.607 367.36C398.135 367.36 399.815 369.408 399.527 372.16H393.207C393.335 373.888 394.199 374.896 395.623 374.896C396.823 374.896 397.655 374.24 397.927 373.136H399.527C399.111 375.024 397.655 376.16 395.655 376.16ZM395.575 368.576C394.279 368.576 393.399 369.504 393.223 371.088H397.815C397.735 369.52 396.887 368.576 395.575 368.576ZM403.203 374.848C403.203 375.568 402.707 376.08 401.971 376.08C401.251 376.08 400.739 375.568 400.739 374.848C400.739 374.096 401.251 373.584 401.971 373.584C402.707 373.584 403.203 374.096 403.203 374.848ZM54.528 396.464V398H47.248V386.512H54.416V388.048H49.008V391.312H53.936V392.848H49.008V396.464H54.528ZM61.5998 398V396.688C61.0718 397.632 60.1278 398.16 58.8798 398.16C57.1198 398.16 55.9678 397.152 55.9678 395.6C55.9678 393.936 57.2958 393.072 59.8238 393.072C60.3198 393.072 60.7198 393.088 61.4078 393.168V392.544C61.4078 391.328 60.7518 390.64 59.6318 390.64C58.4478 390.64 57.7278 391.344 57.6798 392.528H56.2078C56.2878 390.624 57.6478 389.36 59.6318 389.36C61.7278 389.36 62.9438 390.544 62.9438 392.56V398H61.5998ZM57.5038 395.552C57.5038 396.432 58.1598 397.008 59.1998 397.008C60.5598 397.008 61.4078 396.16 61.4078 394.864V394.176C60.7838 394.096 60.3358 394.08 59.9198 394.08C58.3038 394.08 57.5038 394.56 57.5038 395.552ZM71.8244 395.472C71.8244 397.136 70.5284 398.16 68.2724 398.16C66.0324 398.16 64.7044 397.056 64.5444 395.232H66.0964C66.1604 396.288 67.0084 396.944 68.3044 396.944C69.4404 396.944 70.1924 396.544 70.1924 395.744C70.1924 395.04 69.7604 394.736 68.7044 394.528L67.3284 394.272C65.7604 393.968 64.8804 393.168 64.8804 391.888C64.8804 390.4 66.1764 389.36 68.1444 389.36C70.1764 389.36 71.5524 390.448 71.6964 392.192H70.1444C70.0484 391.168 69.2964 390.576 68.1604 390.576C67.1364 390.576 66.4484 391.008 66.4484 391.744C66.4484 392.432 66.8804 392.752 67.9044 392.944L69.3444 393.216C71.0244 393.52 71.8244 394.256 71.8244 395.472ZM80.4413 389.52L76.2013 401.088H74.4413L75.6573 397.888L72.3133 389.52H74.0573L76.5213 395.984L78.8093 389.52H80.4413ZM89.7165 396.432V397.856C89.2205 398.08 88.7885 398.16 88.2765 398.16C86.7085 398.16 85.6205 397.312 85.6205 395.44V390.896H83.7485V389.52H85.6205V387.008H87.2365V389.52H89.7965V390.896H87.2365V395.072C87.2365 396.24 87.7965 396.656 88.6605 396.656C89.0445 396.656 89.3805 396.592 89.7165 396.432ZM94.6564 398.16C92.2564 398.16 90.4964 396.272 90.4964 393.76C90.4964 391.248 92.2564 389.36 94.6564 389.36C97.0564 389.36 98.8164 391.248 98.8164 393.76C98.8164 396.272 97.0564 398.16 94.6564 398.16ZM94.6564 396.736C96.0484 396.736 97.1524 395.616 97.1524 393.76C97.1524 391.904 96.0484 390.8 94.6564 390.8C93.2644 390.8 92.1764 391.904 92.1764 393.76C92.1764 395.616 93.2644 396.736 94.6564 396.736ZM110.528 395.472C110.528 397.136 109.232 398.16 106.976 398.16C104.736 398.16 103.408 397.056 103.248 395.232H104.799C104.864 396.288 105.712 396.944 107.008 396.944C108.144 396.944 108.896 396.544 108.896 395.744C108.896 395.04 108.464 394.736 107.408 394.528L106.032 394.272C104.464 393.968 103.584 393.168 103.584 391.888C103.584 390.4 104.88 389.36 106.848 389.36C108.88 389.36 110.256 390.448 110.4 392.192H108.848C108.752 391.168 108 390.576 106.864 390.576C105.84 390.576 105.152 391.008 105.152 391.744C105.152 392.432 105.584 392.752 106.608 392.944L108.048 393.216C109.728 393.52 110.528 394.256 110.528 395.472ZM113.908 393.216V398H112.292V386.512H113.908V390.88C114.468 389.968 115.332 389.36 116.5 389.36C118.244 389.36 119.396 390.48 119.396 392.512V398H117.78V393.056C117.78 391.6 117.14 390.784 115.94 390.784C114.836 390.784 113.908 391.712 113.908 393.216ZM126.678 398V396.688C126.15 397.632 125.206 398.16 123.958 398.16C122.198 398.16 121.046 397.152 121.046 395.6C121.046 393.936 122.374 393.072 124.902 393.072C125.398 393.072 125.798 393.088 126.486 393.168V392.544C126.486 391.328 125.83 390.64 124.71 390.64C123.526 390.64 122.806 391.344 122.758 392.528H121.286C121.366 390.624 122.726 389.36 124.71 389.36C126.806 389.36 128.022 390.544 128.022 392.56V398H126.678ZM122.582 395.552C122.582 396.432 123.238 397.008 124.278 397.008C125.638 397.008 126.486 396.16 126.486 394.864V394.176C125.862 394.096 125.414 394.08 124.998 394.08C123.382 394.08 122.582 394.56 122.582 395.552ZM131.799 393.664V398H130.183V389.52H131.687V391.312C132.279 390.144 133.559 389.408 134.951 389.408V391.088C133.127 390.992 131.799 391.792 131.799 393.664ZM139.686 398.16C137.238 398.16 135.59 396.384 135.59 393.712C135.59 391.2 137.302 389.36 139.638 389.36C142.166 389.36 143.846 391.408 143.558 394.16H137.238C137.366 395.888 138.23 396.896 139.654 396.896C140.854 396.896 141.686 396.24 141.958 395.136H143.558C143.142 397.024 141.686 398.16 139.686 398.16ZM139.606 390.576C138.31 390.576 137.43 391.504 137.254 393.088H141.846C141.766 391.52 140.918 390.576 139.606 390.576ZM147.234 396.848C147.234 397.568 146.738 398.08 146.002 398.08C145.282 398.08 144.77 397.568 144.77 396.848C144.77 396.096 145.282 395.584 146.002 395.584C146.738 395.584 147.234 396.096 147.234 396.848ZM159.95 396.464V398H152.67V386.512H159.838V388.048H154.43V391.312H159.358V392.848H154.43V396.464H159.95ZM168.926 389.52L165.742 398H163.982L160.798 389.52H162.542L164.894 396.144L167.278 389.52H168.926ZM173.296 398.16C170.848 398.16 169.2 396.384 169.2 393.712C169.2 391.2 170.912 389.36 173.248 389.36C175.776 389.36 177.456 391.408 177.168 394.16H170.848C170.976 395.888 171.84 396.896 173.264 396.896C174.464 396.896 175.296 396.24 175.568 395.136H177.168C176.752 397.024 175.296 398.16 173.296 398.16ZM173.216 390.576C171.92 390.576 171.039 391.504 170.864 393.088H175.456C175.376 391.52 174.528 390.576 173.216 390.576ZM180.502 393.216V398H178.886V389.52H180.39V390.928C180.966 389.984 181.926 389.36 183.094 389.36C184.838 389.36 185.99 390.48 185.99 392.512V398H184.374V393.056C184.374 391.6 183.734 390.784 182.534 390.784C181.43 390.784 180.502 391.712 180.502 393.216ZM194.967 398.16C192.519 398.16 190.871 396.384 190.871 393.712C190.871 391.2 192.583 389.36 194.919 389.36C197.447 389.36 199.127 391.408 198.839 394.16H192.519C192.647 395.888 193.511 396.896 194.935 396.896C196.135 396.896 196.967 396.24 197.239 395.136H198.839C198.423 397.024 196.967 398.16 194.967 398.16ZM194.887 390.576C193.591 390.576 192.711 391.504 192.535 393.088H197.127C197.047 391.52 196.199 390.576 194.887 390.576ZM205.694 398V396.688C205.166 397.632 204.222 398.16 202.974 398.16C201.214 398.16 200.062 397.152 200.062 395.6C200.062 393.936 201.39 393.072 203.918 393.072C204.414 393.072 204.814 393.088 205.502 393.168V392.544C205.502 391.328 204.846 390.64 203.726 390.64C202.542 390.64 201.822 391.344 201.774 392.528H200.302C200.382 390.624 201.742 389.36 203.726 389.36C205.822 389.36 207.038 390.544 207.038 392.56V398H205.694ZM201.598 395.552C201.598 396.432 202.254 397.008 203.294 397.008C204.654 397.008 205.502 396.16 205.502 394.864V394.176C204.878 394.096 204.43 394.08 204.014 394.08C202.398 394.08 201.598 394.56 201.598 395.552ZM215.918 395.472C215.918 397.136 214.622 398.16 212.366 398.16C210.126 398.16 208.798 397.056 208.638 395.232H210.19C210.254 396.288 211.102 396.944 212.398 396.944C213.534 396.944 214.286 396.544 214.286 395.744C214.286 395.04 213.854 394.736 212.798 394.528L211.422 394.272C209.854 393.968 208.974 393.168 208.974 391.888C208.974 390.4 210.27 389.36 212.238 389.36C214.27 389.36 215.646 390.448 215.79 392.192H214.238C214.142 391.168 213.39 390.576 212.254 390.576C211.23 390.576 210.542 391.008 210.542 391.744C210.542 392.432 210.974 392.752 211.998 392.944L213.438 393.216C215.118 393.52 215.918 394.256 215.918 395.472ZM219.651 387.552C219.651 388.16 219.171 388.624 218.483 388.624C217.795 388.624 217.299 388.16 217.299 387.552C217.299 386.928 217.795 386.48 218.483 386.48C219.171 386.48 219.651 386.928 219.651 387.552ZM219.299 398H217.683V389.52H219.299V398ZM225.03 398.16C222.582 398.16 220.934 396.384 220.934 393.712C220.934 391.2 222.646 389.36 224.982 389.36C227.51 389.36 229.19 391.408 228.902 394.16H222.582C222.71 395.888 223.574 396.896 224.998 396.896C226.198 396.896 227.03 396.24 227.302 395.136H228.902C228.486 397.024 227.03 398.16 225.03 398.16ZM224.95 390.576C223.654 390.576 222.774 391.504 222.598 393.088H227.19C227.11 391.52 226.262 390.576 224.95 390.576ZM232.236 393.664V398H230.62V389.52H232.124V391.312C232.716 390.144 233.996 389.408 235.388 389.408V391.088C233.564 390.992 232.236 391.792 232.236 393.664ZM244.795 396.432V397.856C244.299 398.08 243.867 398.16 243.355 398.16C241.787 398.16 240.699 397.312 240.699 395.44V390.896H238.827V389.52H240.699V387.008H242.315V389.52H244.875V390.896H242.315V395.072C242.315 396.24 242.875 396.656 243.739 396.656C244.123 396.656 244.459 396.592 244.795 396.432ZM249.735 398.16C247.335 398.16 245.575 396.272 245.575 393.76C245.575 391.248 247.335 389.36 249.735 389.36C252.135 389.36 253.895 391.248 253.895 393.76C253.895 396.272 252.135 398.16 249.735 398.16ZM249.735 396.736C251.127 396.736 252.231 395.616 252.231 393.76C252.231 391.904 251.127 390.8 249.735 390.8C248.343 390.8 247.255 391.904 247.255 393.76C247.255 395.616 248.343 396.736 249.735 396.736ZM262.438 398.16C260.038 398.16 258.278 396.272 258.278 393.76C258.278 391.248 260.038 389.36 262.438 389.36C264.838 389.36 266.598 391.248 266.598 393.76C266.598 396.272 264.838 398.16 262.438 398.16ZM262.438 396.736C263.83 396.736 264.934 395.616 264.934 393.76C264.934 391.904 263.83 390.8 262.438 390.8C261.046 390.8 259.958 391.904 259.958 393.76C259.958 395.616 261.046 396.736 262.438 396.736ZM269.861 393.664V398H268.245V389.52H269.749V391.312C270.341 390.144 271.621 389.408 273.013 389.408V391.088C271.189 390.992 269.861 391.792 269.861 393.664ZM273.653 393.76C273.653 391.184 275.125 389.36 277.413 389.36C278.549 389.36 279.541 389.936 280.133 390.976V386.512H281.749V398H280.245V396.48C279.637 397.552 278.613 398.16 277.413 398.16C275.125 398.16 273.653 396.304 273.653 393.76ZM275.333 393.76C275.333 395.648 276.325 396.72 277.733 396.72C279.109 396.72 280.133 395.6 280.133 393.728C280.133 391.824 279.077 390.784 277.733 390.784C276.325 390.784 275.333 391.84 275.333 393.76ZM287.483 398.16C285.035 398.16 283.387 396.384 283.387 393.712C283.387 391.2 285.099 389.36 287.435 389.36C289.963 389.36 291.643 391.408 291.355 394.16H285.035C285.163 395.888 286.027 396.896 287.451 396.896C288.651 396.896 289.483 396.24 289.755 395.136H291.355C290.939 397.024 289.483 398.16 287.483 398.16ZM287.403 390.576C286.107 390.576 285.227 391.504 285.051 393.088H289.643C289.563 391.52 288.715 390.576 287.403 390.576ZM294.689 393.664V398H293.073V389.52H294.577V391.312C295.169 390.144 296.449 389.408 297.841 389.408V391.088C296.017 390.992 294.689 391.792 294.689 393.664ZM300.359 396.848C300.359 397.568 299.863 398.08 299.127 398.08C298.407 398.08 297.895 397.568 297.895 396.848C297.895 396.096 298.407 395.584 299.127 395.584C299.863 395.584 300.359 396.096 300.359 396.848Z" fill="white"/>
<path d="M375.834 247.654L372.954 242.65L378.728 242.658L375.834 247.654ZM341.57 185.457L341.314 185.027L341.57 185.457ZM306.358 176.051C305.097 175.289 304.693 173.649 305.455 172.389C306.217 171.129 307.857 170.725 309.117 171.486C310.377 172.248 310.781 173.888 310.019 175.148C309.258 176.408 307.618 176.813 306.358 176.051ZM375.82 244.606L375.32 244.612C375.311 243.945 375.299 243.267 375.282 242.58L375.782 242.568L376.282 242.556C376.298 243.247 376.311 243.928 376.32 244.599L375.82 244.606ZM375.722 240.537L375.222 240.555C375.199 239.884 375.171 239.206 375.14 238.521L375.64 238.499L376.139 238.476C376.171 239.164 376.198 239.846 376.221 240.52L375.722 240.537ZM375.536 236.456L375.037 236.484C375 235.816 374.958 235.141 374.913 234.463L375.412 234.43L375.911 234.396C375.956 235.079 375.998 235.756 376.035 236.429L375.536 236.456ZM375.267 232.396L374.768 232.434C374.716 231.761 374.661 231.084 374.601 230.404L375.099 230.361L375.597 230.317C375.657 231 375.713 231.681 375.765 232.357L375.267 232.396ZM374.91 228.336L374.412 228.385C374.346 227.712 374.276 227.038 374.201 226.362L374.698 226.308L375.195 226.253C375.27 226.932 375.341 227.61 375.408 228.286L374.91 228.336ZM374.463 224.283L373.966 224.343C373.884 223.672 373.798 223 373.708 222.329L374.203 222.262L374.699 222.195C374.79 222.871 374.876 223.547 374.959 224.222L374.463 224.283ZM373.918 220.244L373.424 220.317C373.325 219.646 373.221 218.977 373.113 218.31L373.607 218.23L374.101 218.15C374.209 218.822 374.313 219.496 374.413 220.171L373.918 220.244ZM373.267 216.219L372.775 216.306C372.657 215.638 372.535 214.973 372.408 214.311L372.899 214.217L373.39 214.123C373.518 214.79 373.641 215.46 373.76 216.132L373.267 216.219ZM372.498 212.218L372.008 212.32C371.869 211.654 371.725 210.993 371.575 210.336L372.063 210.225L372.55 210.114C372.701 210.776 372.847 211.444 372.987 212.116L372.498 212.218ZM371.592 208.247L371.107 208.367C370.943 207.705 370.774 207.05 370.598 206.402L371.081 206.271L371.564 206.141C371.741 206.796 371.912 207.458 372.078 208.126L371.592 208.247ZM370.526 204.307L370.047 204.449C369.854 203.797 369.656 203.153 369.451 202.518L369.927 202.365L370.402 202.211C370.61 202.854 370.811 203.506 371.006 204.166L370.526 204.307ZM369.273 200.435L368.802 200.602C368.573 199.957 368.338 199.323 368.095 198.702L368.56 198.52L369.026 198.338C369.273 198.969 369.512 199.613 369.745 200.268L369.273 200.435ZM367.785 196.636L367.326 196.835C367.055 196.211 366.776 195.601 366.489 195.008L366.939 194.79L367.389 194.572C367.682 195.179 367.967 195.801 368.243 196.437L367.785 196.636ZM366.008 192.978L365.569 193.217C365.241 192.615 364.903 192.034 364.555 191.476L364.98 191.212L365.405 190.947C365.763 191.524 366.11 192.121 366.447 192.738L366.008 192.978ZM363.847 189.516L363.441 189.808C363.043 189.255 362.634 188.73 362.212 188.234L362.593 187.911L362.974 187.587C363.414 188.104 363.84 188.651 364.253 189.224L363.847 189.516ZM361.204 186.423L360.856 186.783C360.372 186.313 359.874 185.882 359.361 185.489L359.666 185.092L359.97 184.695C360.514 185.113 361.042 185.57 361.552 186.064L361.204 186.423ZM357.973 183.965L357.725 184.399C357.153 184.073 356.564 183.793 355.958 183.562L356.137 183.094L356.315 182.627C356.97 182.878 357.605 183.18 358.221 183.531L357.973 183.965ZM354.187 182.525L354.086 183.015C353.459 182.886 352.814 182.806 352.15 182.777L352.171 182.278L352.193 181.778C352.91 181.809 353.608 181.896 354.288 182.035L354.187 182.525ZM350.141 182.342L350.193 182.839C349.562 182.905 348.914 183.015 348.25 183.171L348.135 182.684L348.021 182.197C348.725 182.032 349.414 181.915 350.089 181.845L350.141 182.342ZM346.175 183.262L346.342 183.733C345.737 183.947 345.12 184.197 344.489 184.485L344.281 184.03L344.073 183.575C344.73 183.275 345.375 183.014 346.009 182.79L346.175 183.262ZM342.483 184.935L342.724 185.374C342.427 185.537 342.127 185.708 341.825 185.887L341.57 185.457L341.314 185.027C341.626 184.842 341.936 184.666 342.243 184.497L342.483 184.935ZM341.57 185.457L341.825 185.887C341.518 186.07 341.218 186.252 340.925 186.434L340.661 186.01L340.396 185.586C340.695 185.399 341.001 185.213 341.314 185.027L341.57 185.457ZM338.966 187.12L339.25 187.532C338.669 187.932 338.121 188.333 337.604 188.733L337.298 188.338L336.992 187.943C337.524 187.53 338.087 187.119 338.682 186.708L338.966 187.12ZM335.743 189.624L336.075 189.998C335.552 190.461 335.071 190.922 334.629 191.381L334.269 191.035L333.909 190.688C334.37 190.208 334.871 189.729 335.412 189.25L335.743 189.624ZM332.917 192.584L333.31 192.893C332.881 193.44 332.506 193.983 332.183 194.52L331.755 194.262L331.326 194.005C331.672 193.43 332.07 192.853 332.523 192.275L332.917 192.584ZM330.839 196.081L331.303 196.269C331.048 196.899 330.862 197.518 330.741 198.127L330.251 198.029L329.76 197.932C329.894 197.259 330.098 196.578 330.376 195.893L330.839 196.081ZM330.07 200.055L330.57 200.044C330.583 200.694 330.67 201.33 330.826 201.951L330.341 202.072L329.856 202.194C329.682 201.501 329.585 200.791 329.57 200.065L330.07 200.055ZM331.045 203.988L331.494 203.768C331.774 204.339 332.113 204.894 332.509 205.431L332.106 205.728L331.703 206.024C331.275 205.442 330.903 204.836 330.596 204.208L331.045 203.988ZM333.439 207.271L333.793 206.918C334.246 207.372 334.742 207.809 335.278 208.226L334.971 208.621L334.664 209.015C334.098 208.574 333.57 208.11 333.085 207.625L333.439 207.271ZM336.65 209.787L336.913 209.362C337.467 209.706 338.05 210.031 338.659 210.337L338.435 210.784L338.211 211.231C337.576 210.912 336.966 210.572 336.386 210.211L336.65 209.787ZM340.302 211.626L340.489 211.162C341.098 211.408 341.726 211.635 342.373 211.843L342.221 212.319L342.068 212.795C341.398 212.58 340.746 212.344 340.114 212.089L340.302 211.626ZM344.182 212.877L344.302 212.391C344.944 212.551 345.6 212.692 346.268 212.813L346.178 213.305L346.089 213.797C345.401 213.672 344.724 213.526 344.061 213.362L344.182 212.877ZM348.2 213.608L348.26 213.112C348.921 213.191 349.591 213.251 350.269 213.291L350.24 213.79L350.21 214.289C349.512 214.248 348.822 214.186 348.141 214.105L348.2 213.608ZM352.282 213.852L352.283 213.352C352.948 213.353 353.619 213.335 354.293 213.297L354.321 213.796L354.349 214.295C353.656 214.334 352.966 214.353 352.282 214.352L352.282 213.852ZM356.357 213.622L356.3 213.126C356.964 213.05 357.631 212.954 358.298 212.839L358.383 213.331L358.469 213.824C357.782 213.943 357.097 214.041 356.414 214.119L356.357 213.622ZM360.384 212.924L360.27 212.437C360.919 212.285 361.568 212.114 362.214 211.922L362.356 212.401L362.499 212.88C361.833 213.078 361.166 213.255 360.498 213.411L360.384 212.924ZM364.298 211.761L364.127 211.291C364.755 211.063 365.38 210.815 366.001 210.546L366.2 211.005L366.399 211.464C365.759 211.741 365.115 211.996 364.469 212.231L364.298 211.761ZM368.044 210.139L367.818 209.693C368.412 209.391 369.001 209.07 369.583 208.728L369.837 209.159L370.09 209.59C369.489 209.943 368.882 210.274 368.27 210.584L368.044 210.139ZM371.571 208.067L371.292 207.652C371.841 207.282 372.384 206.893 372.919 206.483L373.223 206.88L373.527 207.277C372.976 207.699 372.417 208.101 371.851 208.482L371.571 208.067ZM374.806 205.588L374.479 205.211C374.982 204.774 375.477 204.318 375.963 203.842L376.313 204.199L376.662 204.557C376.162 205.047 375.652 205.516 375.134 205.966L374.806 205.588ZM377.722 202.735L377.352 202.399C377.799 201.906 378.238 201.394 378.667 200.863L379.056 201.177L379.445 201.491C379.004 202.037 378.553 202.564 378.092 203.071L377.722 202.735ZM380.29 199.559L379.884 199.267C380.082 198.991 380.278 198.712 380.471 198.427L380.885 198.708L381.298 198.989C381.1 199.281 380.899 199.568 380.696 199.851L380.29 199.559ZM380.885 198.708L380.471 198.427C380.662 198.146 380.846 197.866 381.023 197.588L381.444 197.857L381.866 198.125C381.684 198.412 381.495 198.7 381.298 198.989L380.885 198.708ZM382.44 196.182L382.002 195.94C382.326 195.354 382.618 194.775 382.88 194.204L383.335 194.412L383.789 194.621C383.517 195.215 383.213 195.816 382.878 196.423L382.44 196.182ZM384.072 192.613L383.602 192.444C383.826 191.823 384.013 191.213 384.164 190.613L384.649 190.735L385.134 190.858C384.974 191.491 384.777 192.133 384.543 192.783L384.072 192.613ZM385.026 188.8L384.531 188.732C384.618 188.09 384.664 187.459 384.671 186.842L385.171 186.847L385.671 186.852C385.664 187.512 385.615 188.184 385.522 188.867L385.026 188.8ZM385.06 184.894L384.564 184.956C384.485 184.323 384.364 183.704 384.201 183.099L384.684 182.969L385.166 182.839C385.341 183.489 385.472 184.153 385.557 184.832L385.06 184.894ZM384.044 181.111L383.584 181.306C383.339 180.727 383.056 180.162 382.735 179.61L383.167 179.358L383.599 179.107C383.941 179.695 384.244 180.298 384.505 180.917L384.044 181.111ZM382.084 177.725L381.683 178.024C381.307 177.522 380.899 177.032 380.458 176.554L380.826 176.215L381.194 175.876C381.656 176.378 382.087 176.894 382.484 177.425L382.084 177.725ZM379.424 174.828L379.088 175.199C378.622 174.777 378.13 174.367 377.614 173.968L377.92 173.572L378.225 173.177C378.761 173.591 379.273 174.018 379.759 174.458L379.424 174.828ZM376.329 172.43L376.051 172.846C375.523 172.493 374.974 172.15 374.406 171.818L374.658 171.387L374.91 170.955C375.495 171.296 376.061 171.65 376.607 172.015L376.329 172.43ZM372.93 170.44L372.702 170.885C372.137 170.595 371.557 170.315 370.963 170.044L371.17 169.589L371.377 169.134C371.985 169.411 372.58 169.698 373.159 169.996L372.93 170.44ZM369.357 168.813L369.17 169.277C368.576 169.038 367.97 168.808 367.352 168.587L367.52 168.116L367.689 167.645C368.319 167.87 368.938 168.105 369.544 168.35L369.357 168.813ZM365.662 167.49L365.511 167.967C364.895 167.772 364.268 167.585 363.632 167.408L363.767 166.926L363.901 166.444C364.548 166.625 365.185 166.815 365.813 167.014L365.662 167.49ZM361.877 166.43L361.758 166.916C361.13 166.762 360.494 166.616 359.852 166.479L359.956 165.99L360.061 165.501C360.713 165.64 361.359 165.788 361.996 165.945L361.877 166.43ZM358.032 165.607L357.941 166.099C357.305 165.981 356.664 165.872 356.017 165.771L356.094 165.277L356.171 164.783C356.827 164.886 357.477 164.996 358.122 165.115L358.032 165.607ZM354.146 164.999L354.082 165.495C353.44 165.412 352.795 165.337 352.145 165.27L352.196 164.773L352.248 164.275C352.906 164.343 353.56 164.42 354.21 164.504L354.146 164.999ZM350.234 164.594L350.195 165.093C349.55 165.042 348.902 164.999 348.251 164.964L348.278 164.465L348.305 163.965C348.964 164.001 349.62 164.045 350.274 164.096L350.234 164.594ZM346.309 164.382L346.294 164.882C345.646 164.862 344.996 164.85 344.345 164.846L344.348 164.346L344.351 163.846C345.011 163.85 345.668 163.862 346.324 163.882L346.309 164.382ZM342.38 164.357L342.389 164.857C341.739 164.868 341.089 164.887 340.438 164.913L340.418 164.414L340.397 163.914C341.056 163.887 341.714 163.868 342.371 163.857L342.38 164.357ZM338.454 164.517L338.486 165.016C337.837 165.058 337.187 165.108 336.539 165.165L336.495 164.667L336.451 164.169C337.107 164.111 337.764 164.061 338.421 164.018L338.454 164.517ZM334.539 164.864L334.595 165.361C333.948 165.434 333.302 165.515 332.657 165.605L332.589 165.109L332.52 164.614C333.173 164.524 333.827 164.442 334.483 164.367L334.539 164.864ZM330.645 165.403L330.726 165.896C330.083 166.002 329.442 166.115 328.804 166.237L328.71 165.746L328.616 165.255C329.263 165.131 329.913 165.016 330.565 164.909L330.645 165.403ZM326.784 166.14L326.891 166.628C326.254 166.767 325.621 166.915 324.991 167.07L324.871 166.585L324.751 166.1C325.389 165.942 326.032 165.792 326.678 165.651L326.784 166.14ZM322.969 167.085L323.103 167.566C322.475 167.741 321.852 167.924 321.234 168.116L321.085 167.639L320.937 167.161C321.565 166.966 322.198 166.78 322.835 166.603L322.969 167.085ZM319.215 168.251L319.378 168.724C318.763 168.936 318.154 169.157 317.55 169.387L317.372 168.92L317.194 168.453C317.807 168.219 318.427 167.994 319.052 167.778L319.215 168.251ZM315.544 169.654L315.738 170.115C315.139 170.367 314.548 170.629 313.964 170.901L313.753 170.447L313.542 169.994C314.137 169.717 314.74 169.451 315.349 169.194L315.544 169.654ZM311.981 171.312L312.209 171.757C311.63 172.054 311.06 172.36 310.499 172.676L310.254 172.241L310.008 171.805C310.581 171.482 311.163 171.169 311.753 170.867L311.981 171.312ZM308.561 173.244L308.825 173.668C308.551 173.839 308.28 174.012 308.011 174.187L307.737 173.769L307.464 173.35C307.739 173.17 308.017 172.993 308.297 172.819L308.561 173.244Z" fill="white"/>
<g filter="url(#filter0_d_7280_26968)">
<rect x="33" y="256" width="491" height="80" rx="28.8" fill="white"/>
<path d="M116.319 298.813V304.4H113.65V290.615H116.319V295.492C117.029 294.551 117.913 293.956 119.257 293.956C121.311 293.956 122.732 295.3 122.732 297.776V304.4H120.082V298.679C120.082 297.162 119.487 296.317 118.277 296.317C117.221 296.317 116.319 297.162 116.319 298.813ZM131.331 301.808V304.132C130.678 304.458 130.064 304.592 129.276 304.592C127.164 304.592 125.84 303.383 125.84 301.079V296.432H123.766V294.148H125.84V291.114H128.489V294.148H131.427V296.432H128.489V300.464C128.489 301.655 129.027 302.135 129.987 302.135C130.486 302.135 130.947 302.02 131.331 301.808ZM139.731 301.808V304.132C139.078 304.458 138.464 304.592 137.676 304.592C135.564 304.592 134.24 303.383 134.24 301.079V296.432H132.166V294.148H134.24V291.114H136.889V294.148H139.827V296.432H136.889V300.464C136.889 301.655 137.427 302.135 138.387 302.135C138.886 302.135 139.347 302.02 139.731 301.808ZM151.69 299.274C151.69 302.308 149.904 304.592 147.14 304.592C145.93 304.592 144.893 304.074 144.125 303.076V308.106H141.456V294.148H143.914V295.645C144.701 294.551 145.834 293.956 147.14 293.956C149.904 293.956 151.69 296.26 151.69 299.274ZM148.944 299.274C148.944 297.354 147.85 296.317 146.544 296.317C145.239 296.317 144.144 297.335 144.144 299.274C144.144 301.213 145.239 302.212 146.544 302.212C147.85 302.212 148.944 301.232 148.944 299.274ZM156.53 295.933C156.53 296.989 155.8 297.738 154.744 297.738C153.688 297.738 152.939 296.989 152.939 295.933C152.939 294.858 153.688 294.109 154.744 294.109C155.8 294.109 156.53 294.858 156.53 295.933ZM156.53 302.692C156.53 303.748 155.8 304.496 154.744 304.496C153.688 304.496 152.939 303.748 152.939 302.692C152.939 301.616 153.688 300.868 154.744 300.868C155.8 300.868 156.53 301.616 156.53 302.692ZM159.193 308.106H156.562L165.03 290.615H167.66L159.193 308.106ZM165.024 308.106H162.394L170.861 290.615H173.491L165.024 308.106ZM182.379 304.4L180.439 297.738L178.519 304.4H175.851L172.932 294.148H175.524L177.271 300.637L179.153 294.148H181.783L183.607 300.637L185.335 294.148H187.966L185.028 304.4H182.379ZM197.716 304.4L195.777 297.738L193.857 304.4H191.188L188.27 294.148H190.862L192.609 300.637L194.49 294.148H197.121L198.945 300.637L200.673 294.148H203.303L200.366 304.4H197.716ZM213.054 304.4L211.114 297.738L209.194 304.4H206.526L203.607 294.148H206.199L207.946 300.637L209.828 294.148H212.458L214.282 300.637L216.01 294.148H218.641L215.703 304.4H213.054ZM221.967 302.692C221.967 303.748 221.238 304.496 220.182 304.496C219.126 304.496 218.377 303.748 218.377 302.692C218.377 301.616 219.126 300.868 220.182 300.868C221.238 300.868 221.967 301.616 221.967 302.692ZM228.24 308.298C225.475 308.298 223.632 306.8 223.517 304.439H226.089C226.205 305.61 226.953 306.224 228.221 306.224C229.699 306.224 230.467 305.437 230.467 303.959V302.461C229.91 303.44 228.854 304.016 227.606 304.016C225.091 304.016 223.209 301.885 223.209 298.986C223.209 296.01 224.976 293.956 227.51 293.956C228.893 293.956 229.929 294.493 230.678 295.549V294.148H233.117V303.92C233.117 306.647 231.273 308.298 228.24 308.298ZM225.878 298.986C225.878 300.656 226.742 301.712 228.125 301.712C229.526 301.712 230.448 300.618 230.448 299.005C230.448 297.335 229.526 296.26 228.125 296.26C226.761 296.26 225.878 297.316 225.878 298.986ZM240.056 304.592C237.08 304.592 234.853 302.25 234.853 299.274C234.853 296.279 237.08 293.956 240.056 293.956C243.032 293.956 245.26 296.279 245.26 299.274C245.26 302.25 243.032 304.592 240.056 304.592ZM240.056 302.231C241.381 302.231 242.514 301.175 242.514 299.274C242.514 297.373 241.381 296.336 240.056 296.336C238.732 296.336 237.599 297.373 237.599 299.274C237.599 301.175 238.732 302.231 240.056 302.231ZM251.134 308.298C248.369 308.298 246.526 306.8 246.41 304.439H248.983C249.098 305.61 249.847 306.224 251.114 306.224C252.593 306.224 253.361 305.437 253.361 303.959V302.461C252.804 303.44 251.748 304.016 250.5 304.016C247.985 304.016 246.103 301.885 246.103 298.986C246.103 296.01 247.87 293.956 250.404 293.956C251.786 293.956 252.823 294.493 253.572 295.549V294.148H256.01V303.92C256.01 306.647 254.167 308.298 251.134 308.298ZM248.772 298.986C248.772 300.656 249.636 301.712 251.018 301.712C252.42 301.712 253.342 300.618 253.342 299.005C253.342 297.335 252.42 296.26 251.018 296.26C249.655 296.26 248.772 297.316 248.772 298.986ZM261.088 299.428V304.4H258.419V294.148H260.877V296.125C261.625 294.82 263.219 294.032 264.87 294.032V296.797C262.605 296.624 261.088 297.162 261.088 299.428ZM272.496 300.08V294.148H275.146V304.4H272.708V303.056C272.151 303.959 271.018 304.592 269.712 304.592C267.658 304.592 266.16 303.344 266.16 300.676V294.148H268.829V300.157C268.829 301.597 269.54 302.231 270.615 302.231C271.575 302.231 272.496 301.463 272.496 300.08ZM287.778 299.274C287.778 302.269 285.992 304.592 283.227 304.592C281.902 304.592 280.789 303.997 280.002 302.922V304.4H277.544V290.615H280.213V295.472C280.962 294.474 281.998 293.956 283.227 293.956C285.992 293.956 287.778 296.24 287.778 299.274ZM285.032 299.274C285.032 297.316 283.938 296.317 282.632 296.317C281.346 296.317 280.232 297.296 280.232 299.236C280.232 301.175 281.307 302.212 282.632 302.212C283.938 302.212 285.032 301.194 285.032 299.274ZM292.392 302.692C292.392 303.748 291.663 304.496 290.607 304.496C289.551 304.496 288.802 303.748 288.802 302.692C288.802 301.616 289.551 300.868 290.607 300.868C291.663 300.868 292.392 301.616 292.392 302.692ZM298.401 304.592C295.445 304.592 293.409 302.404 293.409 299.274C293.409 296.202 295.521 293.956 298.401 293.956C301.07 293.956 303.048 295.76 303.374 298.525H300.571C300.437 297.162 299.611 296.317 298.401 296.317C297.019 296.317 296.136 297.45 296.136 299.274C296.136 301.117 297 302.231 298.401 302.231C299.63 302.231 300.417 301.424 300.571 300.023H303.374C303.067 302.845 301.147 304.592 298.401 304.592ZM309.581 304.592C306.605 304.592 304.378 302.25 304.378 299.274C304.378 296.279 306.605 293.956 309.581 293.956C312.557 293.956 314.785 296.279 314.785 299.274C314.785 302.25 312.557 304.592 309.581 304.592ZM309.581 302.231C310.906 302.231 312.039 301.175 312.039 299.274C312.039 297.373 310.906 296.336 309.581 296.336C308.257 296.336 307.124 297.373 307.124 299.274C307.124 301.175 308.257 302.231 309.581 302.231ZM316.28 308.106H313.65L322.117 290.615H324.747L316.28 308.106ZM327.894 304.4H325.225V294.148H327.683V295.607C328.432 294.57 329.392 293.956 330.755 293.956C332.156 293.956 333.232 294.608 333.75 295.78C334.556 294.647 335.593 293.956 337.129 293.956C339.203 293.956 340.604 295.319 340.604 297.776V304.4H337.955V298.621C337.955 297.181 337.34 296.317 336.169 296.317C335.113 296.317 334.249 297.143 334.249 298.679V304.4H331.6V298.621C331.6 297.181 330.985 296.317 329.814 296.317C328.739 296.317 327.894 297.143 327.894 298.679V304.4ZM351.748 294.148L346.756 308.106H343.857L345.316 304.285L341.284 294.148H344.164L346.737 301.175L349.079 294.148H351.748ZM356.735 304.4H354.086V296.432H352.012V294.148H354.086V293.591C354.086 291.556 355.18 290.404 357.311 290.404C357.964 290.404 358.521 290.519 358.962 290.711V292.823C358.674 292.708 358.29 292.65 357.945 292.65C357.215 292.65 356.735 292.938 356.735 293.648V294.148H359.404V296.432H356.735V304.4ZM365.025 304.592C362.049 304.592 359.822 302.25 359.822 299.274C359.822 296.279 362.049 293.956 365.025 293.956C368.001 293.956 370.228 296.279 370.228 299.274C370.228 302.25 368.001 304.592 365.025 304.592ZM365.025 302.231C366.35 302.231 367.483 301.175 367.483 299.274C367.483 297.373 366.35 296.336 365.025 296.336C363.7 296.336 362.568 297.373 362.568 299.274C362.568 301.175 363.7 302.231 365.025 302.231ZM376.463 304.592C373.487 304.592 371.259 302.25 371.259 299.274C371.259 296.279 373.487 293.956 376.463 293.956C379.439 293.956 381.666 296.279 381.666 299.274C381.666 302.25 379.439 304.592 376.463 304.592ZM376.463 302.231C377.787 302.231 378.92 301.175 378.92 299.274C378.92 297.373 377.787 296.336 376.463 296.336C375.138 296.336 374.005 297.373 374.005 299.274C374.005 301.175 375.138 302.231 376.463 302.231ZM382.697 299.274C382.697 296.24 384.483 293.956 387.247 293.956C388.476 293.956 389.513 294.493 390.281 295.472V290.615H392.931V304.4H390.492V302.922C389.686 303.997 388.572 304.592 387.247 304.592C384.483 304.592 382.697 302.269 382.697 299.274ZM385.443 299.274C385.443 301.194 386.537 302.212 387.843 302.212C389.167 302.212 390.262 301.175 390.262 299.236C390.262 297.296 389.148 296.317 387.843 296.317C386.537 296.317 385.443 297.316 385.443 299.274ZM405.546 299.274C405.546 302.269 403.761 304.592 400.996 304.592C399.671 304.592 398.557 303.997 397.77 302.922V304.4H395.313V290.615H397.981V295.472C398.73 294.474 399.767 293.956 400.996 293.956C403.761 293.956 405.546 296.24 405.546 299.274ZM402.801 299.274C402.801 297.316 401.706 296.317 400.401 296.317C399.114 296.317 398.001 297.296 398.001 299.236C398.001 301.175 399.076 302.212 400.401 302.212C401.706 302.212 402.801 301.194 402.801 299.274ZM413.496 300.08V294.148H416.146V304.4H413.708V303.056C413.151 303.959 412.018 304.592 410.712 304.592C408.658 304.592 407.16 303.344 407.16 300.676V294.148H409.829V300.157C409.829 301.597 410.54 302.231 411.615 302.231C412.575 302.231 413.496 301.463 413.496 300.08ZM427.203 301.117C427.203 303.268 425.571 304.592 422.653 304.592C419.734 304.592 418.102 303.191 417.891 300.906H420.445C420.464 301.962 421.366 302.634 422.691 302.634C423.728 302.634 424.515 302.308 424.515 301.578C424.515 300.925 424.093 300.656 423.114 300.464L421.27 300.119C419.427 299.792 418.314 298.775 418.314 297.181C418.314 295.28 419.946 293.956 422.499 293.956C425.072 293.956 426.838 295.319 427.03 297.527H424.477C424.381 296.528 423.632 295.914 422.499 295.914C421.52 295.914 420.867 296.279 420.867 296.932C420.867 297.546 421.29 297.796 422.211 297.968L424.189 298.333C426.186 298.717 427.203 299.639 427.203 301.117ZM432.116 291.767C432.116 292.669 431.387 293.341 430.331 293.341C429.294 293.341 428.564 292.669 428.564 291.767C428.564 290.826 429.294 290.154 430.331 290.154C431.387 290.154 432.116 290.826 432.116 291.767ZM431.694 304.4H429.025V294.148H431.694V304.4ZM436.738 298.813V304.4H434.069V294.148H436.527V295.607C437.275 294.589 438.331 293.956 439.675 293.956C441.73 293.956 443.151 295.3 443.151 297.776V304.4H440.501V298.679C440.501 297.162 439.906 296.317 438.696 296.317C437.64 296.317 436.738 297.162 436.738 298.813ZM449.905 304.573C446.833 304.573 444.778 302.442 444.778 299.236C444.778 296.183 446.909 293.956 449.866 293.956C453.111 293.956 455.261 296.586 454.781 299.927H447.505C447.677 301.597 448.484 302.519 449.847 302.519C451.018 302.519 451.805 301.943 452.113 300.925H454.762C454.186 303.248 452.401 304.573 449.905 304.573ZM449.809 295.914C448.561 295.914 447.773 296.72 447.543 298.237H451.959C451.882 296.816 451.076 295.914 449.809 295.914ZM465.228 301.117C465.228 303.268 463.596 304.592 460.678 304.592C457.759 304.592 456.127 303.191 455.916 300.906H458.47C458.489 301.962 459.391 302.634 460.716 302.634C461.753 302.634 462.54 302.308 462.54 301.578C462.54 300.925 462.118 300.656 461.139 300.464L459.295 300.119C457.452 299.792 456.339 298.775 456.339 297.181C456.339 295.28 457.971 293.956 460.524 293.956C463.097 293.956 464.863 295.319 465.055 297.527H462.502C462.406 296.528 461.657 295.914 460.524 295.914C459.545 295.914 458.892 296.279 458.892 296.932C458.892 297.546 459.315 297.796 460.236 297.968L462.214 298.333C464.211 298.717 465.228 299.639 465.228 301.117ZM475.709 301.117C475.709 303.268 474.077 304.592 471.159 304.592C468.241 304.592 466.609 303.191 466.397 300.906H468.951C468.97 301.962 469.873 302.634 471.197 302.634C472.234 302.634 473.021 302.308 473.021 301.578C473.021 300.925 472.599 300.656 471.62 300.464L469.777 300.119C467.933 299.792 466.82 298.775 466.82 297.181C466.82 295.28 468.452 293.956 471.005 293.956C473.578 293.956 475.345 295.319 475.537 297.527H472.983C472.887 296.528 472.138 295.914 471.005 295.914C470.026 295.914 469.373 296.279 469.373 296.932C469.373 297.546 469.796 297.796 470.717 297.968L472.695 298.333C474.692 298.717 475.709 299.639 475.709 301.117Z" fill="black"/>
<path d="M95.5984 293.998H94.7984V292.398C94.7984 290.19 93.0064 288.398 90.7984 288.398C88.5904 288.398 86.7984 290.19 86.7984 292.398V293.998H85.9984C85.1184 293.998 84.3984 294.718 84.3984 295.598V303.598C84.3984 304.478 85.1184 305.198 85.9984 305.198H95.5984C96.4784 305.198 97.1984 304.478 97.1984 303.598V295.598C97.1984 294.718 96.4784 293.998 95.5984 293.998ZM90.7984 301.198C89.9184 301.198 89.1984 300.478 89.1984 299.598C89.1984 298.718 89.9184 297.998 90.7984 297.998C91.6784 297.998 92.3984 298.718 92.3984 299.598C92.3984 300.478 91.6784 301.198 90.7984 301.198ZM93.2784 293.998H88.3184V292.398C88.3184 291.03 89.4304 289.918 90.7984 289.918C92.1664 289.918 93.2784 291.03 93.2784 292.398V293.998Z" fill="#FF4F00"/>
</g>
</g>
<defs>
<filter id="filter0_d_7280_26968" x="-42.96" y="184.84" width="642.92" height="231.92" filterUnits="userSpaceOnUse" color-interpolation-filters="sRGB">
<feFlood flood-opacity="0" result="BackgroundImageFix"/>
<feColorMatrix in="SourceAlpha" type="matrix" values="0 0 0 0 0 0 0 0 0 0 0 0 0 0 0 0 0 0 127 0" result="hardAlpha"/>
<feMorphology radius="4.8" operator="dilate" in="SourceAlpha" result="effect1_dropShadow_7280_26968"/>
<feOffset dy="4.8"/>
<feGaussianBlur stdDeviation="35.58"/>
<feComposite in2="hardAlpha" operator="out"/>
<feColorMatrix type="matrix" values="0 0 0 0 1 0 0 0 0 0.364706 0 0 0 0 0.239216 0 0 0 1 0"/>
<feBlend mode="normal" in2="BackgroundImageFix" result="effect1_dropShadow_7280_26968"/>
<feBlend mode="normal" in="SourceGraphic" in2="effect1_dropShadow_7280_26968" result="shape"/>
</filter>
<clipPath id="clip0_7280_26968">
<rect width="488" height="480" rx="8" fill="white"/>
</clipPath>
</defs>
</svg>
