<svg width="36" height="37" viewBox="0 0 36 37" fill="none" xmlns="http://www.w3.org/2000/svg">
<rect y="0.480469" width="36" height="36" rx="18" fill="#FF4F00" fill-opacity="0.04"/>
<path d="M9.9 18.4805C9.9 16.7705 11.29 15.3805 13 15.3805H17V13.4805H13C10.24 13.4805 8 15.7205 8 18.4805C8 21.2405 10.24 23.4805 13 23.4805H17V21.5805H13C11.29 21.5805 9.9 20.1905 9.9 18.4805ZM14 19.4805H22V17.4805H14V19.4805ZM23 13.4805H19V15.3805H23C24.71 15.3805 26.1 16.7705 26.1 18.4805C26.1 20.1905 24.71 21.5805 23 21.5805H19V23.4805H23C25.76 23.4805 28 21.2405 28 18.4805C28 15.7205 25.76 13.4805 23 13.4805Z" fill="black"/>
</svg>
