<svg width="38" height="37" viewBox="0 0 38 37" fill="none" xmlns="http://www.w3.org/2000/svg">
<rect x="1.07617" y="0.101562" width="36" height="36" rx="18" transform="rotate(0.243994 1.07617 0.101562)" fill="#FF4F00" fill-opacity="0.04"/>
<path d="M27.7685 17.1887L27.7346 25.1579C27.7324 25.663 27.5556 26.0898 27.2041 26.4383C26.8526 26.7868 26.4243 26.96 25.9192 26.9579L12.0347 26.8987C11.5296 26.8966 11.1028 26.7198 10.7543 26.3683C10.4058 26.0168 10.2326 25.5885 10.2348 25.0834L10.2688 17.095C9.86764 16.7625 9.56722 16.3321 9.36754 15.8036C9.16787 15.2752 9.16613 14.7057 9.36231 14.095L10.3879 10.7954C10.523 10.3755 10.7508 10.0374 11.0711 9.78104C11.3914 9.52472 11.7734 9.39751 12.217 9.3994L25.8668 9.45752C26.3104 9.45941 26.6887 9.5841 27.0018 9.83159C27.3148 10.0791 27.5422 10.4185 27.684 10.8499L28.7006 14.1773C28.8916 14.7897 28.885 15.3573 28.6808 15.8801C28.4767 16.403 28.1726 16.8392 27.7685 17.1887ZM21.2217 16.4378C21.7678 16.4401 22.1791 16.2749 22.4555 15.9421C22.732 15.6093 22.846 15.2511 22.7976 14.8676L22.2067 10.9419L19.7951 10.9316L19.7783 14.8816C19.7765 15.3021 19.9173 15.6662 20.2006 15.9738C20.4839 16.2815 20.8242 16.4361 21.2217 16.4378ZM16.7217 16.4186C17.182 16.4206 17.556 16.269 17.8439 15.9638C18.1317 15.6586 18.2765 15.2957 18.2783 14.8752L18.2951 10.9252L15.8836 10.915L15.259 14.8739C15.2037 15.2288 15.3138 15.5745 15.5892 15.9109C15.8647 16.2474 16.2422 16.4166 16.7217 16.4186ZM12.2718 16.3997C12.6423 16.4013 12.9614 16.2735 13.2292 16.0163C13.497 15.7591 13.6631 15.4351 13.7276 15.0443L14.3337 10.9084L12.2106 10.8993C12.1016 10.8989 12.0149 10.9225 11.9506 10.9704C11.8863 11.0182 11.8379 11.0901 11.8055 11.1861L10.8301 14.4358C10.6962 14.8647 10.7565 15.2987 11.0111 15.7376C11.2656 16.1765 11.6859 16.3972 12.2718 16.3997ZM25.7716 16.4572C26.3127 16.4595 26.7277 16.2488 27.0167 15.825C27.3056 15.4012 27.3768 14.9614 27.23 14.5057L26.2324 11.2283C26.2007 11.132 26.153 11.0629 26.089 11.0209C26.0251 10.979 25.9387 10.9578 25.8297 10.9573L23.7566 10.9485L24.3274 15.0895C24.3886 15.4808 24.5519 15.8061 24.8175 16.0656C25.0831 16.3251 25.4011 16.4556 25.7716 16.4572ZM12.0411 25.3988L25.9256 25.4579C26.0154 25.4583 26.0892 25.4298 26.1471 25.3723C26.2051 25.3149 26.2343 25.2413 26.2346 25.1515L26.2656 17.8708C26.1565 17.9101 26.0654 17.9344 25.9923 17.9437C25.9191 17.953 25.8435 17.9575 25.7652 17.9571C25.3152 17.9552 24.9198 17.8721 24.5788 17.7078C24.2378 17.5436 23.9079 17.2813 23.5889 16.9209C23.3068 17.2325 22.9737 17.4805 22.5896 17.6647C22.2054 17.849 21.7679 17.9401 21.2768 17.938C20.8525 17.9362 20.4528 17.8464 20.078 17.6685C19.7031 17.4906 19.3503 17.2349 19.0197 16.9015C18.7093 17.2322 18.3582 17.4849 17.9664 17.6595C17.5747 17.8341 17.1782 17.9206 16.7769 17.9188C16.3256 17.9169 15.9029 17.8334 15.5087 17.6683C15.1145 17.5031 14.7682 17.2411 14.4697 16.8821C14.0474 17.3008 13.6587 17.5754 13.3037 17.706C12.9487 17.8365 12.6025 17.9011 12.2654 17.8996C12.1872 17.8993 12.1064 17.8941 12.0231 17.8842C11.9398 17.8742 11.854 17.8492 11.7657 17.8091L11.7347 25.0898C11.7344 25.1795 11.7629 25.2534 11.8203 25.3113C11.8778 25.3692 11.9514 25.3984 12.0411 25.3988Z" fill="#FF4F00"/>
</svg>
