<svg width="36" height="37" viewBox="0 0 36 37" fill="none" xmlns="http://www.w3.org/2000/svg">
<rect y="0.0742188" width="36" height="36" rx="18" fill="#EFB519" fill-opacity="0.04"/>
<path d="M28.3871 18.6738C27.9746 18.3363 27.5621 17.9988 27.1496 17.6613C27.0371 17.5863 26.9621 17.4738 26.9246 17.3613C26.3621 16.3863 25.7996 15.4113 25.2746 14.4363C25.0871 14.0988 24.8246 13.9488 24.4496 13.9488C23.2121 13.9488 22.0121 13.9488 20.7746 13.9488C20.2121 13.9488 19.9871 14.1738 19.9871 14.7363C19.9871 17.2863 19.9871 19.8738 19.9871 22.4238C19.9871 22.6113 19.9496 22.6488 19.7621 22.6488C17.4371 22.6488 15.1121 22.6488 12.7871 22.6488C12.6371 22.6488 12.5996 22.6113 12.5246 22.4613C12.2996 21.7113 11.5871 21.2238 10.7246 21.1488C10.0496 21.1113 9.22461 21.5613 8.96211 22.1988C8.81211 22.5738 8.58711 22.6863 8.24961 22.6113C8.24961 22.6113 8.24961 22.6113 8.21211 22.6113C7.87461 22.6113 7.79961 22.5363 7.79961 22.1613C7.79961 18.7863 7.79961 15.4113 7.79961 12.0738C7.79961 11.7363 7.87461 11.6238 8.21211 11.6238C10.1621 11.6238 12.1496 11.6238 14.0996 11.6238C16.7246 11.6238 19.3496 11.6238 21.9746 11.6238C22.1246 11.6238 22.1996 11.6613 22.2371 11.8113C22.3121 12.1488 22.4246 12.4863 22.5371 12.7863C22.5746 12.9363 22.6496 13.0488 22.7621 13.0863C23.0246 13.1613 23.2121 12.9363 23.1371 12.6363C23.0246 12.2988 22.9496 11.9613 22.8371 11.6238C22.6871 11.1363 22.4996 10.9863 21.9746 10.9863C17.3996 10.9863 12.7871 10.9863 8.21211 10.9863C7.49961 10.9863 7.16211 11.3238 7.16211 12.0738C7.16211 15.4488 7.16211 18.7863 7.16211 22.1613C7.16211 22.2363 7.16211 22.2738 7.16211 22.3488C7.19961 22.7988 7.49961 23.1738 7.98711 23.2113C8.24961 23.3238 8.43711 23.3238 8.62461 23.3238C8.73711 23.3238 8.77461 23.3613 8.81211 23.4738C8.96211 24.4113 9.74961 25.0488 10.6871 25.0863C11.6246 25.0863 12.4121 24.4488 12.5996 23.5113C12.6371 23.3613 12.6746 23.3238 12.8246 23.3238C16.2746 23.3238 19.6871 23.3238 23.1371 23.3238C23.2871 23.3238 23.3246 23.3613 23.3621 23.5113C23.5496 24.4113 24.2621 25.0113 25.1621 25.0863C26.0246 25.1238 26.8121 24.5988 27.1121 23.7363C27.1496 23.6238 27.1121 23.4363 27.2246 23.3613C27.3371 23.3238 27.4871 23.3238 27.6371 23.3613C28.1621 23.3988 28.5746 23.2113 28.7621 22.6863C28.7621 21.5238 28.7621 20.3613 28.7621 19.1988C28.6871 18.9738 28.5371 18.8238 28.3871 18.6738ZM10.7246 24.4488C10.0121 24.4488 9.41211 23.8488 9.44961 23.1363C9.44961 22.4238 10.0496 21.8238 10.7621 21.8238C11.4746 21.8238 12.0746 22.4238 12.0746 23.1363C12.0371 23.8863 11.4371 24.4488 10.7246 24.4488ZM25.2746 24.4488C24.5621 24.4488 23.9621 23.8488 23.9996 23.1363C23.9996 22.4238 24.5996 21.8238 25.3121 21.8613C26.0246 21.8613 26.6246 22.4613 26.6246 23.1738C26.5871 23.8488 25.9871 24.4488 25.2746 24.4488ZM28.1621 22.4238C28.1621 22.5738 28.0871 22.6863 27.9371 22.6863C27.7121 22.6863 27.4871 22.6863 27.2996 22.6863C27.1871 22.6863 27.1871 22.6113 27.1496 22.5363C26.8496 21.7488 26.2871 21.2988 25.4621 21.2238C24.5996 21.1488 23.7746 21.6738 23.4746 22.4988C23.4371 22.6488 23.3996 22.6863 23.2496 22.6863C22.4621 22.6863 21.6746 22.6863 20.8871 22.6863C20.6996 22.6863 20.6621 22.6488 20.6621 22.4613C20.6621 21.1863 20.6621 19.9113 20.6621 18.6363C20.6621 17.3613 20.6621 16.0863 20.6621 14.8113C20.6621 14.6613 20.6996 14.6238 20.8496 14.6238C22.0496 14.6238 23.2496 14.6238 24.4496 14.6238C24.5996 14.6238 24.6746 14.6613 24.7496 14.8113C25.3121 15.8238 25.8746 16.7988 26.4371 17.7738C26.5121 17.8863 26.5871 17.9988 26.6996 18.1113C27.1496 18.4863 27.5996 18.8613 28.0496 19.1988C28.1246 19.2363 28.1621 19.2738 28.1621 19.3863C28.1621 19.5363 28.1621 19.6113 27.9746 19.5738C27.7496 19.5363 27.5621 19.5738 27.3371 19.5738C26.8871 19.5738 26.5871 19.9488 26.6996 20.3988C26.7371 20.5863 26.7746 20.7738 26.8121 20.9613C26.9246 21.3363 27.1121 21.5238 27.5246 21.5238C27.6746 21.5238 27.8621 21.5238 28.0121 21.5238C28.1246 21.5238 28.1621 21.5613 28.1246 21.6738C28.1621 21.9363 28.1621 22.1613 28.1621 22.4238ZM27.8996 20.9238C27.4496 20.9238 27.4496 20.9238 27.3746 20.5488C27.2996 20.2488 27.2996 20.2488 27.5996 20.2488C27.6371 20.2488 27.6746 20.2488 27.7121 20.2488C28.1246 20.2488 28.1246 20.2488 28.1621 20.6988C28.1621 20.8863 28.0871 20.9238 27.8996 20.9238Z" fill="black" stroke="black" stroke-width="0.1"/>
<path d="M8.43651 19.0863C8.21151 19.1613 8.13651 19.3113 8.09901 19.5363C8.09901 19.7988 8.09901 20.0238 8.09901 20.2863C8.09901 20.5863 8.28651 20.7363 8.54901 20.7738C8.62401 20.7738 8.69901 20.7738 8.77401 20.7738C12.1865 20.7738 15.599 20.7738 19.0115 20.7738C19.049 20.7738 19.124 20.7738 19.1615 20.7738C19.499 20.7363 19.6865 20.5863 19.6865 20.2488C19.6865 20.0238 19.6865 19.7988 19.6865 19.5738C19.6865 19.3488 19.6115 19.1613 19.3865 19.0863C19.2365 19.0488 19.2365 18.9738 19.2365 18.8613C19.2365 18.1488 19.2365 17.4363 19.2365 16.7238C19.2365 16.3863 19.199 16.0488 19.424 15.7488C19.4615 15.7113 19.4615 15.6738 19.4615 15.5988C19.5365 15.1488 19.574 14.6988 19.3865 14.2863C19.2365 13.9488 19.0865 13.5738 18.9365 13.1988C18.7865 12.7863 18.599 12.7113 18.1865 12.7113C16.199 12.7113 14.249 12.7113 12.2615 12.7113C12.1865 12.7113 12.074 12.7113 11.999 12.7488C11.849 12.7863 11.774 12.8988 11.774 13.0488C11.774 13.1988 11.8865 13.3113 12.0365 13.3113C12.1115 13.3113 12.1865 13.3113 12.2615 13.3113C13.3115 13.3113 14.3615 13.3113 15.4115 13.3113C16.3115 13.3113 17.2115 13.3113 18.1115 13.3113C18.1865 13.3113 18.299 13.2738 18.3365 13.4238C18.449 13.7238 18.5615 14.0238 18.7115 14.3613C15.4115 14.3613 12.1115 14.3613 8.84901 14.3613C8.96151 14.0613 9.07401 13.7613 9.18651 13.4613C9.22401 13.3488 9.29901 13.3113 9.41151 13.3113C9.78651 13.3113 10.199 13.3113 10.574 13.3113C10.8365 13.3113 10.949 13.1988 10.9865 13.0113C10.9865 12.8238 10.8365 12.6738 10.6115 12.6738C10.199 12.6738 9.74901 12.6738 9.33651 12.6738C9.03651 12.6738 8.81151 12.8238 8.69901 13.1238C8.58651 13.4613 8.47401 13.7988 8.28651 14.0988C8.09901 14.4738 8.06151 14.8488 8.09901 15.2238C8.09901 15.5613 8.21151 15.8613 8.43651 16.1238C8.51151 16.1988 8.51151 16.2738 8.51151 16.3488C8.51151 17.1738 8.51151 17.9988 8.51151 18.8238C8.51151 18.9738 8.51151 19.0488 8.43651 19.0863ZM19.0865 19.7238C19.124 19.8738 19.124 20.0238 19.0865 20.1363C19.0865 20.2113 18.974 20.1738 18.899 20.1738C17.249 20.1738 15.5615 20.1738 13.9115 20.1738C12.2615 20.1738 10.6115 20.1738 8.99901 20.1738C8.92401 20.1738 8.81151 20.2113 8.77401 20.1363C8.73651 19.9863 8.77401 19.8738 8.77401 19.7238C8.77401 19.7238 8.81151 19.6863 8.84901 19.6863C8.88651 19.6863 8.96151 19.6863 8.99901 19.6863C12.299 19.6863 15.599 19.6863 18.899 19.6863C18.9365 19.6863 19.049 19.6113 19.0865 19.7238ZM17.7365 15.0363C17.8865 15.0363 17.999 15.0363 18.149 15.0363C18.374 15.0363 18.5615 15.0363 18.7865 15.0363C18.824 15.0363 18.899 14.9988 18.899 15.1113C18.9365 15.5613 18.749 15.8988 18.3365 16.0488C17.9615 16.1613 17.549 15.9363 17.399 15.5613C17.399 15.5238 17.399 15.5238 17.3615 15.4863C17.324 15.1113 17.3615 15.0363 17.7365 15.0363ZM15.224 15.1488C15.224 15.0738 15.2615 15.0363 15.3365 15.0363C15.5615 15.0363 15.7865 15.0363 15.974 15.0363C16.199 15.0363 16.424 15.0363 16.6115 15.0363C16.6865 15.0363 16.724 15.0738 16.724 15.1488C16.7615 15.6363 16.424 16.0488 15.9365 16.0488C15.524 16.0488 15.1865 15.6738 15.224 15.1488ZM13.199 15.0363C13.424 15.0363 13.6115 15.0363 13.8365 15.0363C14.0615 15.0363 14.249 15.0363 14.474 15.0363C14.5115 15.0363 14.5865 14.9988 14.5865 15.1113C14.624 15.5613 14.4365 15.8988 14.024 16.0488C13.649 16.1613 13.2365 15.9363 13.0865 15.5613C13.049 15.4488 13.049 15.2988 13.049 15.1863C13.049 15.0363 13.124 15.0363 13.199 15.0363ZM10.874 15.1488C10.874 15.0738 10.9115 15.0363 10.9865 15.0363C11.2115 15.0363 11.4365 15.0363 11.624 15.0363C11.849 15.0363 12.074 15.0363 12.2615 15.0363C12.3365 15.0363 12.374 15.0363 12.374 15.1488C12.4115 15.6738 12.074 16.0488 11.5865 16.0488C11.2115 16.0488 10.874 15.6738 10.874 15.1488ZM10.6865 16.2738C11.324 16.8363 12.0365 16.8363 12.674 16.2738C12.749 16.1988 12.7865 16.1988 12.8615 16.2738C13.4615 16.8363 14.249 16.8363 14.8115 16.2738C14.8865 16.1988 14.924 16.1988 15.0365 16.2738C15.6365 16.8363 16.3865 16.8363 16.9865 16.2738C17.0615 16.2363 17.099 16.1613 17.174 16.2363C17.5865 16.6488 18.1115 16.7613 18.674 16.5738C18.674 16.9113 18.674 17.2488 18.674 17.5488C18.674 17.9613 18.674 18.4113 18.674 18.8238C18.674 18.9363 18.674 19.0113 18.524 19.0113C15.449 19.0113 12.374 19.0113 9.29901 19.0113C9.22401 19.0113 9.14901 19.0488 9.14901 18.8988C9.14901 18.1488 9.14901 17.3988 9.14901 16.6113C9.67401 16.6863 10.124 16.6113 10.499 16.1988C10.574 16.1613 10.6115 16.1988 10.6865 16.2738ZM9.07401 15.0363C9.22401 15.0363 9.37401 15.0363 9.52401 15.0363C9.74901 15.0363 9.93651 15.0363 10.1615 15.0363C10.2365 15.0363 10.274 14.9988 10.3115 15.1113C10.3865 15.5238 10.124 15.9363 9.7115 16.0488C9.299 16.1238 8.88651 15.8988 8.81151 15.4863V15.4488C8.66151 15.0738 8.69901 15.0363 9.07401 15.0363Z" fill="black" stroke="black" stroke-width="0.1"/>
<path d="M24.4496 15.4871C24.3371 15.2996 24.1871 15.2246 23.9621 15.2246C23.1746 15.2246 22.3496 15.2246 21.5621 15.2246C21.1871 15.2246 21.0371 15.3746 21.0371 15.7496C21.0371 16.4996 21.0371 17.2121 21.0371 17.9621C21.0371 18.3371 21.1871 18.4871 21.5621 18.4871C22.1246 18.4871 22.6871 18.4871 23.2496 18.4871C23.8121 18.4871 24.3746 18.4871 24.8996 18.4871C25.5371 18.4871 25.8371 17.9621 25.5371 17.4371C25.1621 16.7621 24.7871 16.1246 24.4496 15.4871ZM24.8246 17.8121C24.3371 17.8121 23.8496 17.8121 23.3621 17.8121C22.8746 17.8121 22.3496 17.8121 21.8621 17.8121C21.7121 17.8121 21.6746 17.7746 21.6746 17.6246C21.6746 17.0621 21.6746 16.5371 21.6746 15.9746C21.6746 15.8246 21.7121 15.7871 21.8621 15.7871C22.4996 15.7871 23.1371 15.7871 23.8121 15.7871C23.9246 15.7871 23.9621 15.8246 24.0371 15.8996C24.3371 16.4621 24.6746 17.0246 24.9746 17.5871C25.0496 17.8121 24.9746 17.8121 24.8246 17.8121Z" fill="black" stroke="black" stroke-width="0.1"/>
<path d="M10.7612 22.1233C10.2362 22.0858 9.74867 22.5358 9.71117 23.0983C9.67367 23.6608 10.1237 24.1108 10.6862 24.1483C11.2487 24.1858 11.6987 23.7358 11.7362 23.1733C11.7737 22.6108 11.3237 22.1608 10.7612 22.1233ZM10.7237 23.5108C10.4987 23.5108 10.3112 23.3233 10.3112 23.1358C10.3112 22.9483 10.4987 22.7608 10.7237 22.7608C10.9112 22.7608 11.0987 22.9483 11.0987 23.1358C11.0987 23.3608 10.9487 23.5108 10.7237 23.5108Z" fill="black"/>
<path d="M25.2742 22.123C24.7117 22.123 24.2617 22.573 24.2617 23.1355C24.2617 23.698 24.7117 24.148 25.2742 24.148C25.8367 24.148 26.2867 23.698 26.2867 23.1355C26.2867 22.573 25.8367 22.123 25.2742 22.123ZM25.2742 23.5105C25.0492 23.5105 24.8992 23.323 24.8992 23.098C24.8992 22.9105 25.0867 22.723 25.2742 22.723C25.4617 22.723 25.6492 22.9105 25.6492 23.1355C25.6492 23.3605 25.4617 23.5105 25.2742 23.5105Z" fill="black"/>
</svg>
