<svg width="36" height="37" viewBox="0 0 36 37" fill="none" xmlns="http://www.w3.org/2000/svg">
<rect y="0.0742188" width="36" height="36" rx="18" fill="#F48D42" fill-opacity="0.04"/>
<path d="M23.8379 9.5293C24.7652 9.40697 25.5983 9.62013 26.1904 10.1387L26.3057 10.2461C26.9075 10.848 27.158 11.7331 27.0264 12.7217C26.8946 13.711 26.3803 14.7749 25.4961 15.6592C24.0106 17.1447 22.0789 17.5374 20.79 16.9395L20.4727 16.792L18.4023 18.8623L18.7559 19.2158L25.2812 25.7422L24.5791 26.4453L17.7002 19.5664L17.3467 19.9189L10.8096 26.4355L10.1064 25.7324L19.7598 16.0791L19.6133 15.7627C19.0154 14.4742 19.4072 12.543 20.8916 11.0576C21.7808 10.1731 22.8482 9.65999 23.8379 9.5293ZM15.9219 16.373L13.7988 18.4961L9.96289 14.6689C8.71745 13.4142 8.60955 11.4629 9.63477 10.0947L15.9219 16.373Z" fill="#FF4F00" stroke="#FF4F00"/>
</svg>
