<svg width="57" height="56" viewBox="0 0 57 56" fill="none" xmlns="http://www.w3.org/2000/svg">
<rect x="0.5" width="56" height="56" rx="8" fill="#FF00E6" fill-opacity="0.08"/>
<path d="M38.8871 28.5996C38.4746 28.2621 38.0621 27.9246 37.6496 27.5871C37.5371 27.5121 37.4621 27.3996 37.4246 27.2871C36.8621 26.3121 36.2996 25.3371 35.7746 24.3621C35.5871 24.0246 35.3246 23.8746 34.9496 23.8746C33.7121 23.8746 32.5121 23.8746 31.2746 23.8746C30.7121 23.8746 30.4871 24.0996 30.4871 24.6621C30.4871 27.2121 30.4871 29.7996 30.4871 32.3496C30.4871 32.5371 30.4496 32.5746 30.2621 32.5746C27.9371 32.5746 25.6121 32.5746 23.2871 32.5746C23.1371 32.5746 23.0996 32.5371 23.0246 32.3871C22.7996 31.6371 22.0871 31.1496 21.2246 31.0746C20.5496 31.0371 19.7246 31.4871 19.4621 32.1246C19.3121 32.4996 19.0871 32.6121 18.7496 32.5371C18.7496 32.5371 18.7496 32.5371 18.7121 32.5371C18.3746 32.5371 18.2996 32.4621 18.2996 32.0871C18.2996 28.7121 18.2996 25.3371 18.2996 21.9996C18.2996 21.6621 18.3746 21.5496 18.7121 21.5496C20.6621 21.5496 22.6496 21.5496 24.5996 21.5496C27.2246 21.5496 29.8496 21.5496 32.4746 21.5496C32.6246 21.5496 32.6996 21.5871 32.7371 21.7371C32.8121 22.0746 32.9246 22.4121 33.0371 22.7121C33.0746 22.8621 33.1496 22.9746 33.2621 23.0121C33.5246 23.0871 33.7121 22.8621 33.6371 22.5621C33.5246 22.2246 33.4496 21.8871 33.3371 21.5496C33.1871 21.0621 32.9996 20.9121 32.4746 20.9121C27.8996 20.9121 23.2871 20.9121 18.7121 20.9121C17.9996 20.9121 17.6621 21.2496 17.6621 21.9996C17.6621 25.3746 17.6621 28.7121 17.6621 32.0871C17.6621 32.1621 17.6621 32.1996 17.6621 32.2746C17.6996 32.7246 17.9996 33.0996 18.4871 33.1371C18.7496 33.2496 18.9371 33.2496 19.1246 33.2496C19.2371 33.2496 19.2746 33.2871 19.3121 33.3996C19.4621 34.3371 20.2496 34.9746 21.1871 35.0121C22.1246 35.0121 22.9121 34.3746 23.0996 33.4371C23.1371 33.2871 23.1746 33.2496 23.3246 33.2496C26.7746 33.2496 30.1871 33.2496 33.6371 33.2496C33.7871 33.2496 33.8246 33.2871 33.8621 33.4371C34.0496 34.3371 34.7621 34.9371 35.6621 35.0121C36.5246 35.0496 37.3121 34.5246 37.6121 33.6621C37.6496 33.5496 37.6121 33.3621 37.7246 33.2871C37.8371 33.2496 37.9871 33.2496 38.1371 33.2871C38.6621 33.3246 39.0746 33.1371 39.2621 32.6121C39.2621 31.4496 39.2621 30.2871 39.2621 29.1246C39.1871 28.8996 39.0371 28.7496 38.8871 28.5996ZM21.2246 34.3746C20.5121 34.3746 19.9121 33.7746 19.9496 33.0621C19.9496 32.3496 20.5496 31.7496 21.2621 31.7496C21.9746 31.7496 22.5746 32.3496 22.5746 33.0621C22.5371 33.8121 21.9371 34.3746 21.2246 34.3746ZM35.7746 34.3746C35.0621 34.3746 34.4621 33.7746 34.4996 33.0621C34.4996 32.3496 35.0996 31.7496 35.8121 31.7871C36.5246 31.7871 37.1246 32.3871 37.1246 33.0996C37.0871 33.7746 36.4871 34.3746 35.7746 34.3746ZM38.6621 32.3496C38.6621 32.4996 38.5871 32.6121 38.4371 32.6121C38.2121 32.6121 37.9871 32.6121 37.7996 32.6121C37.6871 32.6121 37.6871 32.5371 37.6496 32.4621C37.3496 31.6746 36.7871 31.2246 35.9621 31.1496C35.0996 31.0746 34.2746 31.5996 33.9746 32.4246C33.9371 32.5746 33.8996 32.6121 33.7496 32.6121C32.9621 32.6121 32.1746 32.6121 31.3871 32.6121C31.1996 32.6121 31.1621 32.5746 31.1621 32.3871C31.1621 31.1121 31.1621 29.8371 31.1621 28.5621C31.1621 27.2871 31.1621 26.0121 31.1621 24.7371C31.1621 24.5871 31.1996 24.5496 31.3496 24.5496C32.5496 24.5496 33.7496 24.5496 34.9496 24.5496C35.0996 24.5496 35.1746 24.5871 35.2496 24.7371C35.8121 25.7496 36.3746 26.7246 36.9371 27.6996C37.0121 27.8121 37.0871 27.9246 37.1996 28.0371C37.6496 28.4121 38.0996 28.7871 38.5496 29.1246C38.6246 29.1621 38.6621 29.1996 38.6621 29.3121C38.6621 29.4621 38.6621 29.5371 38.4746 29.4996C38.2496 29.4621 38.0621 29.4996 37.8371 29.4996C37.3871 29.4996 37.0871 29.8746 37.1996 30.3246C37.2371 30.5121 37.2746 30.6996 37.3121 30.8871C37.4246 31.2621 37.6121 31.4496 38.0246 31.4496C38.1746 31.4496 38.3621 31.4496 38.5121 31.4496C38.6246 31.4496 38.6621 31.4871 38.6246 31.5996C38.6621 31.8621 38.6621 32.0871 38.6621 32.3496ZM38.3996 30.8496C37.9496 30.8496 37.9496 30.8496 37.8746 30.4746C37.7996 30.1746 37.7996 30.1746 38.0996 30.1746C38.1371 30.1746 38.1746 30.1746 38.2121 30.1746C38.6246 30.1746 38.6246 30.1746 38.6621 30.6246C38.6621 30.8121 38.5871 30.8496 38.3996 30.8496Z" fill="#606060" stroke="black" stroke-width="0.1"/>
<path d="M18.9365 29.0121C18.7115 29.0871 18.6365 29.2371 18.599 29.4621C18.599 29.7246 18.599 29.9496 18.599 30.2121C18.599 30.5121 18.7865 30.6621 19.049 30.6996C19.124 30.6996 19.199 30.6996 19.274 30.6996C22.6865 30.6996 26.099 30.6996 29.5115 30.6996C29.549 30.6996 29.624 30.6996 29.6615 30.6996C29.999 30.6621 30.1865 30.5121 30.1865 30.1746C30.1865 29.9496 30.1865 29.7246 30.1865 29.4996C30.1865 29.2746 30.1115 29.0871 29.8865 29.0121C29.7365 28.9746 29.7365 28.8996 29.7365 28.7871C29.7365 28.0746 29.7365 27.3621 29.7365 26.6496C29.7365 26.3121 29.699 25.9746 29.924 25.6746C29.9615 25.6371 29.9615 25.5996 29.9615 25.5246C30.0365 25.0746 30.074 24.6246 29.8865 24.2121C29.7365 23.8746 29.5865 23.4996 29.4365 23.1246C29.2865 22.7121 29.099 22.6371 28.6865 22.6371C26.699 22.6371 24.749 22.6371 22.7615 22.6371C22.6865 22.6371 22.574 22.6371 22.499 22.6746C22.349 22.7121 22.274 22.8246 22.274 22.9746C22.274 23.1246 22.3865 23.2371 22.5365 23.2371C22.6115 23.2371 22.6865 23.2371 22.7615 23.2371C23.8115 23.2371 24.8615 23.2371 25.9115 23.2371C26.8115 23.2371 27.7115 23.2371 28.6115 23.2371C28.6865 23.2371 28.799 23.1996 28.8365 23.3496C28.949 23.6496 29.0615 23.9496 29.2115 24.2871C25.9115 24.2871 22.6115 24.2871 19.349 24.2871C19.4615 23.9871 19.574 23.6871 19.6865 23.3871C19.724 23.2746 19.799 23.2371 19.9115 23.2371C20.2865 23.2371 20.699 23.2371 21.074 23.2371C21.3365 23.2371 21.449 23.1246 21.4865 22.9371C21.4865 22.7496 21.3365 22.5996 21.1115 22.5996C20.699 22.5996 20.249 22.5996 19.8365 22.5996C19.5365 22.5996 19.3115 22.7496 19.199 23.0496C19.0865 23.3871 18.974 23.7246 18.7865 24.0246C18.599 24.3996 18.5615 24.7746 18.599 25.1496C18.599 25.4871 18.7115 25.7871 18.9365 26.0496C19.0115 26.1246 19.0115 26.1996 19.0115 26.2746C19.0115 27.0996 19.0115 27.9246 19.0115 28.7496C19.0115 28.8996 19.0115 28.9746 18.9365 29.0121ZM29.5865 29.6496C29.624 29.7996 29.624 29.9496 29.5865 30.0621C29.5865 30.1371 29.474 30.0996 29.399 30.0996C27.749 30.0996 26.0615 30.0996 24.4115 30.0996C22.7615 30.0996 21.1115 30.0996 19.499 30.0996C19.424 30.0996 19.3115 30.1371 19.274 30.0621C19.2365 29.9121 19.274 29.7996 19.274 29.6496C19.274 29.6496 19.3115 29.6121 19.349 29.6121C19.3865 29.6121 19.4615 29.6121 19.499 29.6121C22.799 29.6121 26.099 29.6121 29.399 29.6121C29.4365 29.6121 29.549 29.5371 29.5865 29.6496ZM28.2365 24.9621C28.3865 24.9621 28.499 24.9621 28.649 24.9621C28.874 24.9621 29.0615 24.9621 29.2865 24.9621C29.324 24.9621 29.399 24.9246 29.399 25.0371C29.4365 25.4871 29.249 25.8246 28.8365 25.9746C28.4615 26.0871 28.049 25.8621 27.899 25.4871C27.899 25.4496 27.899 25.4496 27.8615 25.4121C27.824 25.0371 27.8615 24.9621 28.2365 24.9621ZM25.724 25.0746C25.724 24.9996 25.7615 24.9621 25.8365 24.9621C26.0615 24.9621 26.2865 24.9621 26.474 24.9621C26.699 24.9621 26.924 24.9621 27.1115 24.9621C27.1865 24.9621 27.224 24.9996 27.224 25.0746C27.2615 25.5621 26.924 25.9746 26.4365 25.9746C26.024 25.9746 25.6865 25.5996 25.724 25.0746ZM23.699 24.9621C23.924 24.9621 24.1115 24.9621 24.3365 24.9621C24.5615 24.9621 24.749 24.9621 24.974 24.9621C25.0115 24.9621 25.0865 24.9246 25.0865 25.0371C25.124 25.4871 24.9365 25.8246 24.524 25.9746C24.149 26.0871 23.7365 25.8621 23.5865 25.4871C23.549 25.3746 23.549 25.2246 23.549 25.1121C23.549 24.9621 23.624 24.9621 23.699 24.9621ZM21.374 25.0746C21.374 24.9996 21.4115 24.9621 21.4865 24.9621C21.7115 24.9621 21.9365 24.9621 22.124 24.9621C22.349 24.9621 22.574 24.9621 22.7615 24.9621C22.8365 24.9621 22.874 24.9621 22.874 25.0746C22.9115 25.5996 22.574 25.9746 22.0865 25.9746C21.7115 25.9746 21.374 25.5996 21.374 25.0746ZM21.1865 26.1996C21.824 26.7621 22.5365 26.7621 23.174 26.1996C23.249 26.1246 23.2865 26.1246 23.3615 26.1996C23.9615 26.7621 24.749 26.7621 25.3115 26.1996C25.3865 26.1246 25.424 26.1246 25.5365 26.1996C26.1365 26.7621 26.8865 26.7621 27.4865 26.1996C27.5615 26.1621 27.599 26.0871 27.674 26.1621C28.0865 26.5746 28.6115 26.6871 29.174 26.4996C29.174 26.8371 29.174 27.1746 29.174 27.4746C29.174 27.8871 29.174 28.3371 29.174 28.7496C29.174 28.8621 29.174 28.9371 29.024 28.9371C25.949 28.9371 22.874 28.9371 19.799 28.9371C19.724 28.9371 19.649 28.9746 19.649 28.8246C19.649 28.0746 19.649 27.3246 19.649 26.5371C20.174 26.6121 20.624 26.5371 20.999 26.1246C21.074 26.0871 21.1115 26.1246 21.1865 26.1996ZM19.574 24.9621C19.724 24.9621 19.874 24.9621 20.024 24.9621C20.249 24.9621 20.4365 24.9621 20.6615 24.9621C20.7365 24.9621 20.774 24.9246 20.8115 25.0371C20.8865 25.4496 20.624 25.8621 20.2115 25.9746C19.799 26.0496 19.3865 25.8246 19.3115 25.4121V25.3746C19.1615 24.9996 19.199 24.9621 19.574 24.9621Z" fill="black" stroke="black" stroke-width="0.1"/>
<path d="M34.9496 25.4119C34.8371 25.2244 34.6871 25.1494 34.4621 25.1494C33.6746 25.1494 32.8496 25.1494 32.0621 25.1494C31.6871 25.1494 31.5371 25.2994 31.5371 25.6744C31.5371 26.4244 31.5371 27.1369 31.5371 27.8869C31.5371 28.2619 31.6871 28.4119 32.0621 28.4119C32.6246 28.4119 33.1871 28.4119 33.7496 28.4119C34.3121 28.4119 34.8746 28.4119 35.3996 28.4119C36.0371 28.4119 36.3371 27.8869 36.0371 27.3619C35.6621 26.6869 35.2871 26.0494 34.9496 25.4119ZM35.3246 27.7369C34.8371 27.7369 34.3496 27.7369 33.8621 27.7369C33.3746 27.7369 32.8496 27.7369 32.3621 27.7369C32.2121 27.7369 32.1746 27.6994 32.1746 27.5494C32.1746 26.9869 32.1746 26.4619 32.1746 25.8994C32.1746 25.7494 32.2121 25.7119 32.3621 25.7119C32.9996 25.7119 33.6371 25.7119 34.3121 25.7119C34.4246 25.7119 34.4621 25.7494 34.5371 25.8244C34.8371 26.3869 35.1746 26.9494 35.4746 27.5119C35.5496 27.7369 35.4746 27.7369 35.3246 27.7369Z" fill="black" stroke="black" stroke-width="0.1"/>
<path d="M21.2612 32.05C20.7362 32.0125 20.2487 32.4625 20.2112 33.025C20.1737 33.5875 20.6237 34.0375 21.1862 34.075C21.7487 34.1125 22.1987 33.6625 22.2362 33.1C22.2737 32.5375 21.8237 32.0875 21.2612 32.05ZM21.2237 33.4375C20.9987 33.4375 20.8112 33.25 20.8112 33.0625C20.8112 32.875 20.9987 32.6875 21.2237 32.6875C21.4112 32.6875 21.5987 32.875 21.5987 33.0625C21.5987 33.2875 21.4487 33.4375 21.2237 33.4375Z" fill="black"/>
<path d="M35.7742 32.0498C35.2117 32.0498 34.7617 32.4998 34.7617 33.0623C34.7617 33.6248 35.2117 34.0748 35.7742 34.0748C36.3367 34.0748 36.7867 33.6248 36.7867 33.0623C36.7867 32.4998 36.3367 32.0498 35.7742 32.0498ZM35.7742 33.4373C35.5492 33.4373 35.3992 33.2498 35.3992 33.0248C35.3992 32.8373 35.5867 32.6498 35.7742 32.6498C35.9617 32.6498 36.1492 32.8373 36.1492 33.0623C36.1492 33.2873 35.9617 33.4373 35.7742 33.4373Z" fill="black"/>
</svg>
