<svg width="56" height="56" viewBox="0 0 56 56" fill="none" xmlns="http://www.w3.org/2000/svg">
<rect width="56" height="56" rx="8" fill="#FF4F00" fill-opacity="0.08"/>
<path d="M20.336 36.6543L19.2822 35.6005L29.4745 25.4082C29.1553 24.6569 29.0976 23.8668 29.3014 23.038C29.5053 22.2091 29.9578 21.4543 30.6591 20.7736C31.427 20.0056 32.327 19.521 33.3591 19.3197C34.3911 19.1184 35.2424 19.353 35.9129 20.0236C36.5835 20.6941 36.8181 21.5453 36.6168 22.5774C36.4155 23.6094 35.9309 24.5094 35.1629 25.2774C34.4822 25.9786 33.7274 26.4312 32.8985 26.6351C32.0697 26.8389 31.2796 26.7812 30.5283 26.462L28.9898 28.0005L36.5898 35.6005L35.536 36.6543L27.936 29.1043L20.336 36.6543ZM23.3437 28.162L20.4591 25.2774C19.636 24.4543 19.2101 23.4755 19.1812 22.3409C19.1524 21.2062 19.5271 20.2082 20.3053 19.3466L26.2168 25.2889L23.3437 28.162Z" fill="#606060"/>
</svg>
