<svg width="103" height="29" viewBox="0 0 103 29" fill="none" xmlns="http://www.w3.org/2000/svg">
<path fill-rule="evenodd" clip-rule="evenodd" d="M57.7126 10.0746V11.9402C57.7126 18.5944 53.0791 22.6367 46.9841 22.6367C40.1428 22.6367 35.2295 17.5994 35.2295 11.3494C35.2295 5.03728 40.2361 0 46.6421 0C50.8091 0 54.323 2.05223 56.1577 4.97509L51.9286 7.40045C51.0267 5.97011 49.0676 4.85072 46.611 4.85072C42.9415 4.85072 40.205 7.55592 40.205 11.3805C40.205 15.0808 42.8171 17.786 47.0463 17.786C49.9383 17.786 51.8353 16.5111 52.6127 14.4278H46.7976V10.0746H57.7126ZM12.19 6.65419H16.7302V21.424C16.7302 26.6478 12.6565 28.8555 8.52057 28.8555C5.28649 28.8555 2.58105 27.6429 1.15059 25.0931L5.131 22.7921C5.72185 23.8804 6.62366 24.7511 8.67606 24.7511C10.8528 24.7511 12.19 23.6317 12.19 21.424V19.9937C11.1638 21.2685 9.67116 22.0148 7.64986 22.0148C3.23409 22.0148 0 18.4078 0 14.1168C0 9.82581 3.23409 6.21887 7.64986 6.21887C9.67116 6.21887 11.1638 6.96513 12.19 8.24V6.65419ZM8.42728 17.7238C10.6352 17.7238 12.19 16.2623 12.19 14.1168C12.19 11.9713 10.6352 10.5099 8.42728 10.5099C6.2194 10.5099 4.66455 11.9713 4.66455 14.1168C4.66455 16.2623 6.2194 17.7238 8.42728 17.7238ZM68.4474 6.34324C66.4883 6.34324 64.4048 7.33826 63.7828 9.42158V6.65419H59.1183V22.2014H63.7828V15.174C63.7828 12.0957 66.5194 11.3183 68.4474 11.6293V6.34324ZM79.4282 6.65419H84.0928V22.2014H79.4282V20.7399C78.5886 21.8904 77.0338 22.6367 74.9814 22.6367C71.8406 22.6367 69.1662 20.3979 69.1662 16.2001V6.65419H73.8308V15.5161C73.8308 17.4439 75.0436 18.3457 76.5362 18.3457C78.2466 18.3457 79.4282 17.3506 79.4282 15.1429V6.65419ZM103 14.4278C103 9.79471 99.6415 6.21887 95.5678 6.21887C93.4843 6.21887 91.9606 6.93404 90.9344 8.11562V0.435321H86.2698V22.2014H90.9344V20.7399C91.9606 21.9215 93.4843 22.6367 95.5678 22.6367C99.6415 22.6367 103 19.0608 103 14.4278ZM98.3355 14.4278C98.3355 16.7598 96.7806 18.2213 94.6349 18.2213C92.4892 18.2213 90.9344 16.7598 90.9344 14.4278C90.9344 12.0957 92.4892 10.6343 94.6349 10.6343C96.7806 10.6343 98.3355 12.0957 98.3355 14.4278ZM21.8381 4.3625C21.7228 4.25949 21.6329 4.13882 21.5683 4.00051C21.5038 3.8622 21.4675 3.7223 21.4595 3.58081C21.4516 3.43931 21.471 3.29831 21.5177 3.15779C21.5645 3.01727 21.6415 2.88925 21.7487 2.77372L22.1779 2.29333C22.2351 2.22928 22.2766 2.158 22.3026 2.07948C22.3285 2.00097 22.3392 1.92129 22.3349 1.84042C22.3305 1.75956 22.3108 1.68158 22.276 1.60649C22.2411 1.5314 22.1918 1.46523 22.128 1.40798L21.827 1.139C21.7758 1.09322 21.7493 1.03793 21.7476 0.973142C21.7459 0.908349 21.768 0.850328 21.814 0.799077C21.8599 0.747827 21.9161 0.720332 21.9826 0.716593C22.049 0.712855 22.108 0.733868 22.1596 0.779633L22.4542 1.04289C22.5695 1.1459 22.6583 1.2646 22.7205 1.39898C22.7827 1.53337 22.8179 1.6713 22.826 1.81279C22.8341 1.95428 22.8147 2.09431 22.7676 2.2329C22.7206 2.37148 22.6456 2.49834 22.5426 2.61347L22.1134 3.09386C22.0524 3.16218 22.0088 3.2356 21.9827 3.31413C21.9567 3.39265 21.946 3.47233 21.9507 3.55317C21.9554 3.63402 21.975 3.71305 22.0095 3.79027C22.044 3.8675 22.0956 3.93654 22.1642 3.9974L22.4653 4.26638C22.5165 4.31216 22.544 4.36845 22.5478 4.43523C22.5515 4.50202 22.5305 4.56095 22.4847 4.61203C22.4389 4.66311 22.3826 4.69061 22.3159 4.69453C22.2491 4.69845 22.1902 4.67743 22.1391 4.63147L21.8381 4.3625ZM20.6254 4.43073C20.5101 4.32771 20.4212 4.20805 20.3587 4.07173C20.2962 3.93541 20.261 3.79634 20.2532 3.65451C20.2454 3.51269 20.2647 3.37071 20.3113 3.22859C20.3578 3.08646 20.4327 2.95758 20.536 2.84195L20.9651 2.36156C21.0224 2.29751 21.0639 2.22622 21.0899 2.14771C21.1158 2.0692 21.1265 1.98951 21.1222 1.90865C21.1178 1.82779 21.0981 1.74981 21.0632 1.67472C21.0284 1.59963 20.9791 1.53346 20.9153 1.47621L20.6143 1.20723C20.5674 1.16526 20.5409 1.11103 20.5351 1.04452C20.5292 0.978017 20.5493 0.919058 20.5952 0.867646C20.637 0.816632 20.6921 0.788222 20.7607 0.782415C20.8293 0.776608 20.8893 0.796515 20.9405 0.842137L21.2415 1.11111C21.3568 1.21413 21.4456 1.33282 21.5078 1.46721C21.57 1.6016 21.6052 1.73953 21.6133 1.88102C21.6214 2.0225 21.6019 2.16254 21.5547 2.30114C21.5075 2.43973 21.4326 2.56659 21.3299 2.6817L20.9007 3.16209C20.8397 3.23041 20.7961 3.30383 20.77 3.38235C20.7439 3.46087 20.7333 3.54056 20.738 3.6214C20.7427 3.70225 20.7623 3.78128 20.7968 3.8585C20.8313 3.93572 20.8829 4.00477 20.9515 4.06563L21.2526 4.33461C21.3038 4.38039 21.3313 4.43667 21.335 4.50346C21.3388 4.57024 21.3178 4.62918 21.272 4.68026C21.2262 4.73134 21.1699 4.75884 21.1032 4.76275C21.0364 4.76667 20.9775 4.74566 20.9264 4.6997L20.6254 4.43073ZM19.4123 4.49289C19.297 4.38988 19.2082 4.27118 19.1458 4.1368C19.0834 4.00243 19.0483 3.86449 19.0405 3.72298C19.0327 3.58148 19.0521 3.43951 19.0986 3.29706C19.1451 3.15461 19.22 3.02565 19.3233 2.91017L19.7521 2.42372C19.8093 2.35967 19.8509 2.28839 19.8768 2.20988C19.9027 2.13136 19.9135 2.05168 19.9091 1.97081C19.9047 1.88995 19.8851 1.81197 19.8502 1.73688C19.8153 1.66179 19.766 1.59562 19.7023 1.53837L19.4013 1.2694C19.3543 1.22743 19.3279 1.17319 19.322 1.10669C19.3162 1.04018 19.3362 0.981221 19.3822 0.929809C19.4241 0.882838 19.4795 0.857419 19.5482 0.853553C19.6169 0.849687 19.6748 0.868737 19.7217 0.910705L20.0288 1.17934C20.1441 1.28235 20.2328 1.40105 20.2951 1.53544C20.3573 1.66982 20.3925 1.80776 20.4006 1.94924C20.4087 2.09073 20.3892 2.23077 20.342 2.36936C20.2948 2.50796 20.2199 2.63481 20.1172 2.74993L19.688 3.23032C19.627 3.29864 19.5835 3.37311 19.5575 3.45373C19.5315 3.53436 19.5209 3.61501 19.5256 3.69569C19.5303 3.77638 19.5499 3.85436 19.5843 3.92964C19.6187 4.00492 19.6702 4.07299 19.7388 4.13386L20.0398 4.40283C20.0911 4.44862 20.1176 4.5039 20.1193 4.5687C20.121 4.63349 20.0988 4.69151 20.0529 4.74276C20.0069 4.78996 19.9516 4.81643 19.887 4.82217C19.8225 4.82791 19.7646 4.80781 19.7133 4.76186L19.4123 4.49289ZM22.6718 6.5362C22.3472 6.69677 22.0347 6.87805 21.736 7.07831C21.7679 7.10645 21.7986 7.13658 21.828 7.16867L26.7272 12.5184C26.7797 12.345 26.8121 12.1648 26.8228 11.9811C26.8575 11.3836 26.6593 10.7954 26.269 10.3392L22.6718 6.5362ZM19.9708 8.67187C19.7411 8.94859 19.5291 9.24054 19.3366 9.546L22.8154 13.47C23.2359 13.8992 23.8075 14.151 24.4112 14.1711C24.5947 14.1772 24.7767 14.1618 24.9537 14.1261L20.0627 8.78525C20.0294 8.74888 19.9988 8.711 19.9708 8.67187ZM18.3027 11.988C18.1504 12.6149 18.0698 13.2698 18.0698 13.9436C18.0698 18.5051 21.7679 22.203 26.3299 22.203C28.0701 22.203 29.6846 21.6649 31.0161 20.7461L26.691 16.0232C25.9703 16.4013 25.1577 16.5906 24.3308 16.563C23.098 16.522 21.9295 16.0022 21.0749 15.1135C21.0637 15.1018 21.0527 15.09 21.042 15.0779L18.3027 11.988ZM32.7696 19.1166C33.9085 17.7009 34.59 15.9018 34.59 13.9436C34.59 9.38201 30.8918 5.68414 26.3299 5.68414C25.9568 5.68414 25.5894 5.70888 25.2294 5.75681L28.0263 8.71381C28.0374 8.72554 28.0483 8.73751 28.0589 8.74969C28.8693 9.67911 29.2835 10.8883 29.2121 12.1191C29.1643 12.9423 28.9019 13.7307 28.4603 14.411L32.7696 19.1166Z" fill="#FF4F00"/>
</svg>
